<svg id="Layer_1" data-name="Layer 1" xmlns="http://www.w3.org/2000/svg" viewBox="0 0 825 1125"><defs><style>.cls-1{fill:#a5d35e;}</style></defs><title>Artboard 1 copy 5</title><g id="Group_76" data-name="Group 76"><g id="Group_138" data-name="Group 138"><g id="Path_230" data-name="Path 230"><path class="cls-1" d="M76.35,629.62,114,574.78l90.46-131.7L313.92,283.75,408.51,146c15.31-22.29,31.05-44.34,45.95-66.9l.64-.93H390.34l35.75,55.11,85.25,131.46L615,424.51,704,561.83c14.45,22.27,28.71,44.68,43.35,66.83l.62,1c5.29,8.15,12.89,14.62,22.41,17.24,9,2.47,20.93,1.35,28.9-3.78,16.42-10.59,24.87-33.71,13.45-51.31L777,536.66,691.75,405.21,588.14,245.45,499.07,108.13c-14.44-22.27-28.71-44.67-43.34-66.83l-.63-1c-7.29-11.24-18.68-18.58-32.38-18.58-14,0-24.74,7.45-32.38,18.58L352.67,95.18l-90.45,131.7L152.78,386.21,58.18,523.94c-15.3,22.28-31.14,44.29-45.95,66.9-.2.32-.42.62-.64.93-5.27,7.68-6.17,20.19-3.78,28.9s9.12,18.12,17.24,22.41c8.7,4.6,19.24,6.9,28.89,3.78S70.58,638,76.35,629.62Z"/></g><g id="Path_231" data-name="Path 231"><path class="cls-1" d="M460.22,1061.41V99.94c0-13,.12-26,0-39V59.26c0-19.61-17.25-38.4-37.5-37.5s-37.5,16.48-37.5,37.5v961.47c0,13-.11,26,0,39,0,.57,0,1.14,0,1.71,0,19.61,17.25,38.4,37.5,37.5s37.5-16.48,37.5-37.5Z"/></g></g></g></svg>