<?xml version="1.0" encoding="utf-8"?>
<!-- Generator: Adobe Illustrator 23.0.4, SVG Export Plug-In . SVG Version: 6.00 Build 0)  -->
<svg version="1.1" id="Layer_1" xmlns="http://www.w3.org/2000/svg" xmlns:xlink="http://www.w3.org/1999/xlink" x="0px" y="0px"
	 viewBox="0 0 825 1125" style="enable-background:new 0 0 825 1125;" xml:space="preserve">
<style type="text/css">
	.st0{fill:#35852E;}
</style>
<title>Artboard 1 copy 5</title>
<g id="Group_76">
	<g id="Group_138">
		<g id="Path_230">
			<path class="st0" d="M76.3,629.6l37.7-54.8l90.5-131.7l109.5-159.3L408.5,146c15.3-22.3,31-44.3,46-66.9l0.6-0.9h-64.8l35.8,55.1
				l85.2,131.5L615,424.5l89,137.3c14.5,22.3,28.7,44.7,43.3,66.8l0.6,1c5.3,8.2,12.9,14.6,22.4,17.2c9,2.5,20.9,1.3,28.9-3.8
				c16.4-10.6,24.9-33.7,13.5-51.3L777,536.7l-85.2-131.4L588.1,245.4l-89.1-137.3c-14.4-22.3-28.7-44.7-43.3-66.8l-0.6-1
				c-7.3-11.2-18.7-18.6-32.4-18.6c-14,0-24.7,7.4-32.4,18.6l-37.7,54.9l-90.4,131.7L152.8,386.2L58.2,523.9
				c-15.3,22.3-31.1,44.3-46,66.9c-0.2,0.3-0.4,0.6-0.6,0.9c-5.3,7.7-6.2,20.2-3.8,28.9s9.1,18.1,17.2,22.4
				c8.7,4.6,19.2,6.9,28.9,3.8S70.6,638,76.3,629.6z"/>
		</g>
		<g id="Path_231">
			<path class="st0" d="M460.2,1061.4V99.9c0-13,0.1-26,0-39v-1.7c0-19.6-17.2-38.4-37.5-37.5s-37.5,16.5-37.5,37.5v961.5
				c0,13-0.1,26,0,39c0,0.6,0,1.1,0,1.7c0,19.6,17.2,38.4,37.5,37.5S460.2,1082.5,460.2,1061.4L460.2,1061.4z"/>
		</g>
	</g>
</g>
</svg>
