<svg id="Layer_1" data-name="Layer 1" xmlns="http://www.w3.org/2000/svg" viewBox="0 0 1125 1125"><defs><style>.cls-1{fill:#fff;}</style></defs><title>Artboard 1 copy</title><path class="cls-1" d="M502,957.22c35.16-.24,70.35,1.32,105.5-.49a10.81,10.81,0,0,0,10.19-11.27c-.08-1.83-.21-3.65-.21-5.45q.12-181.1.15-362.2c0-1.39-.12-2.81-.24-4.24a10.81,10.81,0,0,1,10.75-11.68q40.35-.2,80.71-.37c21.71-.08,21.46,0,23.29-22.17,2.65-32,5.41-64,8.72-96,1.21-11.67-2.45-16-14.52-15.86-32.43.48-64.87.2-97.31.12a10.86,10.86,0,0,1-10.8-10.26c-1.64-26.11-1-52.22.42-78.34,0-.36.06-.72.1-1.08,2.43-17.67,11-29.18,30.37-30,15.31-2.3,30.73-.26,46.07-1.12,11.62-.65,23.34,1.18,34.92-.13a10.73,10.73,0,0,0,9.36-10.59c.55-38.72,1.1-77.43-.21-116.15a10.84,10.84,0,0,0-11.44-10.44c-1.64.09-3.29.2-4.91.17-35.26-.63-70.55,1-105.8-.87a9.67,9.67,0,0,0-1.7.06c-22.3,2.64-45.4,3.49-66,11.93-23.09,9.43-45.49,20.16-62,42-23.48,30.93-26.44,66.25-28.56,102-1.77,29.69-.69,59.57-.19,89.35.16,10.07-2.63,14.28-13.38,13.84-18.34-.74-36.75.22-55.1-.36-9.54-.31-13.08,2.62-12.94,12.57.53,36.56.45,73.13.52,109.7a10.84,10.84,0,0,0,10.64,10.82c5.72.09,11.46-.51,17.17-.15,14.31.9,28.72-1.16,43,.31a10.86,10.86,0,0,1,9.72,10.52c.09,3.45.17,6.9.17,10.36q0,177.69.1,355.38c0,3.19-.47,6.48-.4,9.72a10.66,10.66,0,0,0,9.16,10.29C478.8,958.63,490.46,957.3,502,957.22ZM562,1120C253.83,1120,4,870.17,4,562S253.83,4,562,4s558,249.83,558,558S870.17,1120,562,1120Z"/></svg>