<svg id="Layer_1" data-name="Layer 1" xmlns="http://www.w3.org/2000/svg" viewBox="0 0 1125 1125"><defs><style>.cls-1{fill:#fff;}</style></defs><title>Artboard 1</title><path class="cls-1" d="M562.7,1118.4C255.85,1117.18,7.9,868.51,9,563.41,10.11,256.73,257.84,9.86,563.74,10.13c307,.28,554,248.88,553.55,554.85C1116.8,871.78,868.47,1118.25,562.7,1118.4ZM481.45,235.87c-35.76.69-71.72.14-106.83,8.66-59.33,14.4-101.19,49.36-123.7,106.61-11.28,28.68-14.08,58.8-15.07,89.23-2.35,71.45-1.6,142.91-1,214.37.28,31.6.92,63.25,7.52,94.41,15.35,72.53,69.17,124.39,141.93,137.23,27.17,4.79,54.56,5.76,82,6.25q92.71,1.64,185.46.13c32.33-.49,64.65-1.08,96.57-7.6,71.19-14.53,124.44-69.71,136.89-141.7,5.26-30.44,5.95-61.13,6.36-91.83q1.2-87.27,0-174.56c-.43-32.52-.72-65.1-7.61-97.13-10-46.42-33.54-84-73.3-110.52-31.73-21.2-67.63-29.13-105.11-31.48-47.4-3-94.87-2.21-142.33-2.18C536,235.76,508.72,235.34,481.45,235.87Z"/><path class="cls-1" d="M553.93,294.72c55.22,0,101.24-.37,147.21,2.17,18.38,1,36.52,3.69,53.84,10.24,37.83,14.3,60.35,42,70.09,80.75,4.69,18.64,5.93,37.7,6.34,56.78,1.87,86.19,2.71,172.39-1,258.56-.9,21-4.56,41.58-13.45,60.8-16.44,35.52-45.1,55.29-82.74,63.26-17.52,3.71-35.31,4.75-53.11,5.19q-117.82,2.91-235.67,0c-24-.6-48-2-70.92-10.11-41.63-14.64-65.24-44.71-74.38-87.14-3.7-17.16-4.72-34.58-5.16-52q-3-118.92,0-237.86c.51-20,1.71-40,6.91-59.43,12.55-47,43.26-74.55,90.31-84.76,18.57-4,37.48-4.63,56.36-5.4C486.75,294.19,525,294.84,553.93,294.72Zm9,100.7c-93.3.36-169.14,76.5-168.53,169.2C395,657.9,470.34,733,563.23,733c93.1,0,169.06-76,168.8-169C731.76,470.68,655.94,395.06,563,395.42Zm215.21-6.88a39.44,39.44,0,1,0-78.87.43,39.44,39.44,0,0,0,78.87-.43Z"/><path class="cls-1" d="M563.27,673.62A109.41,109.41,0,1,1,672.63,564.15,109.12,109.12,0,0,1,563.27,673.62Z"/></svg>