<?xml version="1.0" encoding="utf-8"?>
<!-- Generator: Adobe Illustrator 23.0.4, SVG Export Plug-In . SVG Version: 6.00 Build 0)  -->
<svg version="1.1" id="Layer_1" xmlns="http://www.w3.org/2000/svg" xmlns:xlink="http://www.w3.org/1999/xlink" x="0px" y="0px"
	 viewBox="0 0 1140 278" style="enable-background:new 0 0 1140 278;" xml:space="preserve">
<style type="text/css">
	.st0{fill:#A5D35E;}
	.st1{enable-background:new    ;}
</style>
<title>logo</title>
<path d="M45.9,153.6c30.5-30.3,68-54.6,107.2-72.2c15.7-7,32.2-13.2,49.2-16.1c8.9-1.5,22.7-3.5,30.1,3.3c6.7,6.2,2.2,16.9-1.4,23.5
	c-7.2,13.6-18.3,25.1-29.4,35.6c-30.9,29.1-68.4,52.8-107.4,69.4c-16.5,7-34.5,13.6-52.6,14.7c-5.6,0.4-11.8,0.4-17-1.9
	c-9.4-4-7.9-14-4.6-22c1.5-3.6-4.4-5.1-5.8-1.6c-3.2,7.8-5,17.6,1.3,24.4c3.3,3.7,8.2,5.6,13,6.4c14.5,2.6,30.3-1.4,44.1-5.7
	c43.4-13.6,84.5-38.4,119.4-67.3c14.4-11.9,28.3-25.1,39-40.6c6-8.6,13-20.5,10.3-31.5c-2.4-9.9-12.6-13.4-21.7-14
	c-15.7-1.1-32,3.7-46.7,8.9c-24.1,8.5-47.1,20.3-68.8,33.9c-22.3,13.9-43.7,29.9-62.4,48.4C38.9,152.1,43.2,156.4,45.9,153.6
	L45.9,153.6z"/>
<path d="M230.5,215.5c29.4-12.9-5.3-51.9-17.2-64c-32.4-33.2-73.9-59.7-116.5-77.8c-16.7-7.2-34.4-13.4-52.6-15.2
	c-10-1-23.5-0.8-30,8.3c-6,8.4-2.1,19.7,2.3,28c7.9,15.1,20.4,27.9,32.9,39.4c20,18.4,42.6,34.3,66.1,47.9
	c21.6,12.6,44.6,23.5,68.7,30.7c3.7,1.1,5.3-4.7,1.6-5.8c-41.2-12.2-80.1-35-113.7-61.4c-14.4-11.4-28.3-23.8-39.8-38.2
	C25.5,99,16.5,87.3,17.2,76.1c0.6-9.5,10.6-11.8,18.5-12c15-0.4,30.2,4.3,44.2,9.3c41,14.7,79.9,38.6,112.8,67
	c13.9,12,27.8,25.4,37.1,41.4c5.5,9.5,10.6,22.9-2.3,28.6C224,211.8,227,217,230.5,215.5L230.5,215.5z"/>
<path d="M147,19.8C140.5,9,128.3,0.1,116.3,8.4c-10.8,7.4-16.2,21.7-20.2,33.6c-6.8,20.3-9.9,41.8-11.7,63c-2.1,25.4-1.8,51,1,76.4
	c2.2,20,5.7,40.4,13,59.2c4.1,10.6,10.2,24.1,21.3,29c9.6,4.2,18.5-1.7,24.2-9.3c9.7-12.7,14.4-29.4,17.9-44.7c6-26.5,8-53.9,7.9-81
	c0-26.1-2-52.6-8.4-78c-0.9-3.8-6.7-2.2-5.8,1.6c5.1,20.4,7.3,41.5,7.9,62.5c0.8,22.6-0.2,45.3-3,67.7c-2.4,18.1-6,36.6-13.1,53.5
	c-3.4,8-9.2,20.9-18.8,23s-16.5-9.4-20.2-16.5c-7.7-14.6-11.5-31.4-14.3-47.6c-7.5-43.1-7.3-89.2,1.2-132.1
	c3.3-16.4,7.6-34.2,17.4-48.1c2.7-3.8,6.4-8,11.2-9.2c8-2,14.2,5.4,17.9,11.5c2,3.3,7.2,0.3,5.2-3L147,19.8z"/>
<circle class="st0" cx="151.7" cy="38.7" r="10.9"/>
<circle class="st0" cx="30.8" cy="170.5" r="10.9"/>
<circle class="st0" cx="206.9" cy="214.3" r="10.9"/>
<g class="st1">
	<path d="M338.5,56.2c-0.4-0.2-1-0.5-1.7-0.7c-0.6-0.2-1.4-0.3-2.4-0.5c-1-0.2-2.1-0.2-3.5-0.2c-3,0-5.7,0.5-8.3,1.6
		c-2.6,1.1-4.8,2.7-6.6,4.9c-1.8,2.1-3.3,4.8-4.3,7.9c-1,3.1-1.5,6.8-1.5,11c0,4,0.5,7.5,1.5,10.5c1,3,2.4,5.6,4.3,7.7
		c1.8,2.1,4.1,3.7,6.7,4.7c2.6,1.1,5.4,1.6,8.5,1.6c1.9,0,3.6-0.1,5-0.4c1.4-0.3,2.6-0.5,3.7-0.8s1.9-0.5,2.5-0.8
		c0.7-0.3,1.3-0.4,1.8-0.4c0.7,0,1.3,0.2,1.6,0.6c0.4,0.4,0.5,1,0.5,1.7c0,0.4-0.1,0.8-0.2,1.1c-0.2,0.3-0.4,0.7-0.8,1
		c-0.4,0.4-1.1,0.9-2,1.4c-0.9,0.5-2.1,1-3.5,1.5s-3,0.8-4.9,1.1c-1.8,0.3-3.9,0.5-6.2,0.5c-4.2,0-7.9-0.7-11.3-2
		c-3.4-1.3-6.2-3.3-8.6-5.8c-2.4-2.5-4.2-5.6-5.5-9.3c-1.3-3.7-1.9-7.9-1.9-12.7c0-5.1,0.8-9.7,2.3-13.7c1.5-4.1,3.6-7.5,6.3-10.4
		c2.7-2.8,5.9-5,9.8-6.5c3.8-1.5,8-2.3,12.7-2.3c3.3,0,6,0.3,8.1,0.8c2.1,0.5,3.6,1.2,4.4,2c0.2,0.2,0.4,0.5,0.6,0.8
		c0.2,0.3,0.3,0.7,0.4,1.1c0.1,0.5,0.2,1,0.2,1.8s0,1.6,0,2.6V59c0,1,0,2,0,2.8c0,0.8,0,1.9-0.1,3.3c-0.1,1-0.3,1.7-0.8,2
		c-0.5,0.4-1,0.6-1.8,0.6c-0.7,0-1.2-0.2-1.7-0.6c-0.5-0.4-0.8-1.1-1-2L338.5,56.2z"/>
</g>
<path d="M353.8,89.1c0-3.7,0.6-7,1.7-10c1.1-3,2.7-5.5,4.8-7.6c2-2.1,4.4-3.7,7.2-4.9c2.8-1.2,5.9-1.8,9.2-1.8
	c6.5,0,11.6,1.9,15.3,5.8c3.7,3.8,5.6,9.3,5.6,16.5c0,3.6-0.6,6.9-1.7,9.9c-1.1,3-2.7,5.6-4.7,7.7c-2,2.1-4.4,3.8-7.2,4.9
	s-5.9,1.7-9.3,1.7c-6.5,0-11.6-1.9-15.3-5.8C355.7,101.7,353.8,96.2,353.8,89.1z M362.2,87.9c0,2.8,0.3,5.3,1,7.5
	c0.7,2.2,1.7,4,2.9,5.4c1.2,1.5,2.7,2.5,4.4,3.3c1.7,0.7,3.5,1.1,5.4,1.1c3.9,0,7.1-1.4,9.6-4.2c2.5-2.8,3.8-7,3.8-12.7
	c0-2.8-0.4-5.3-1-7.5c-0.7-2.2-1.7-4-2.9-5.4c-1.2-1.4-2.7-2.6-4.4-3.3c-1.7-0.8-3.5-1.1-5.5-1.1c-3.9,0-7.1,1.4-9.6,4.2
	C363.5,77.9,362.2,82.1,362.2,87.9z"/>
<path d="M412.2,72.1l-5.4-0.8c-1-0.2-1.6-0.5-2-0.8c-0.3-0.4-0.5-0.9-0.5-1.5c0-0.7,0.2-1.3,0.5-1.7c0.4-0.4,1.1-0.7,2.1-1
	c1-0.2,2.2-0.5,3.6-0.6c1.4-0.2,2.7-0.3,4-0.3c1.9,0,3.3,0.4,3.9,1.1c0.7,0.7,1,2,1,3.9v1.6l0.2,0.1c0.8-1.3,1.9-2.5,3.2-3.5
	c1-0.8,2.4-1.6,4.2-2.4c1.8-0.8,3.9-1.1,6.4-1.1c3.5,0,6.4,0.7,8.8,2c2.4,1.3,4.2,3.3,5.4,5.9c1-1.5,2.2-2.8,3.6-3.9
	c1.2-1,2.8-2,4.6-2.8c1.9-0.8,4.1-1.2,6.8-1.2c5.1,0,9.1,1.4,11.9,4.3c2.8,2.8,4.2,7.1,4.2,12.9v22.1l4.5,1.2c1,0.2,1.6,0.6,2,1
	c0.3,0.4,0.5,0.9,0.5,1.6c0,0.8-0.3,1.4-0.8,1.9c-0.5,0.5-1.2,0.7-2.1,0.7h-15.9c-0.9,0-1.6-0.2-2.1-0.7c-0.5-0.5-0.8-1.1-0.8-1.9
	c0-0.7,0.2-1.2,0.5-1.6c0.3-0.4,1-0.8,2-1l4.1-1.1V84.3c0-4.7-0.9-8-2.8-10.1c-1.8-2.1-4.4-3.1-7.8-3.1c-1.8,0-3.3,0.3-4.7,1
	c-1.4,0.6-2.5,1.3-3.5,2.1c-1.1,0.9-2.1,1.9-2.9,3.1c0.1,0.3,0.2,0.7,0.3,1.1c0,0.4,0,0.9,0.1,1.5c0.1,0.6,0.1,1.4,0.1,2.2v22.1
	l4.2,1.1c0.9,0.2,1.5,0.6,1.9,1c0.3,0.4,0.5,1,0.5,1.6c0,0.8-0.2,1.4-0.7,1.9c-0.5,0.5-1.2,0.7-2.2,0.7h-15.3c-1,0-1.7-0.2-2.2-0.7
	c-0.5-0.5-0.7-1.1-0.7-1.9c0-0.7,0.2-1.2,0.5-1.6c0.3-0.4,1-0.8,1.9-1l4.2-1.1V84.3c0-4.7-0.9-8-2.8-10.1c-1.8-2.1-4.5-3.1-7.9-3.1
	c-1.7,0-3.2,0.3-4.4,0.9c-1.3,0.6-2.4,1.2-3.4,2c-1,0.8-1.9,1.8-2.7,2.8v27.4l4.1,1.1c1,0.2,1.6,0.6,2,1c0.3,0.4,0.5,1,0.5,1.6
	c0,0.8-0.3,1.4-0.8,1.9c-0.5,0.5-1.2,0.7-2.1,0.7h-16.4c-1,0-1.7-0.2-2.2-0.7c-0.5-0.5-0.7-1.1-0.7-1.9c0-0.7,0.2-1.2,0.5-1.5
	c0.3-0.4,1-0.7,2-0.9l5.1-1.3V72.1z"/>
<path d="M497.9,72.1l-5.4-0.8c-1-0.2-1.6-0.5-2-0.8c-0.3-0.4-0.5-0.9-0.5-1.5c0-0.7,0.2-1.3,0.5-1.7c0.4-0.4,1.1-0.7,2.1-1
	c1-0.2,2.2-0.5,3.6-0.6c1.4-0.2,2.7-0.3,4-0.3c1.9,0,3.3,0.4,3.9,1.1c0.7,0.7,1,2,1,3.9v1.6l0.2,0.1c0.8-1.3,1.9-2.5,3.2-3.5
	c1-0.8,2.4-1.6,4.2-2.4c1.8-0.8,3.9-1.1,6.4-1.1c3.5,0,6.4,0.7,8.8,2c2.4,1.3,4.2,3.3,5.4,5.9c1-1.5,2.2-2.8,3.6-3.9
	c1.2-1,2.8-2,4.6-2.8c1.9-0.8,4.1-1.2,6.8-1.2c5.1,0,9.1,1.4,11.9,4.3c2.8,2.8,4.2,7.1,4.2,12.9v22.1l4.5,1.2c1,0.2,1.6,0.6,2,1
	c0.3,0.4,0.5,0.9,0.5,1.6c0,0.8-0.3,1.4-0.8,1.9c-0.5,0.5-1.2,0.7-2.1,0.7h-15.9c-0.9,0-1.6-0.2-2.1-0.7c-0.5-0.5-0.8-1.1-0.8-1.9
	c0-0.7,0.2-1.2,0.5-1.6c0.3-0.4,1-0.8,2-1l4.1-1.1V84.3c0-4.7-0.9-8-2.8-10.1c-1.8-2.1-4.4-3.1-7.8-3.1c-1.8,0-3.3,0.3-4.7,1
	c-1.4,0.6-2.5,1.3-3.5,2.1c-1.1,0.9-2.1,1.9-2.9,3.1c0.1,0.3,0.2,0.7,0.3,1.1c0,0.4,0,0.9,0.1,1.5c0.1,0.6,0.1,1.4,0.1,2.2v22.1
	l4.2,1.1c0.9,0.2,1.5,0.6,1.9,1c0.3,0.4,0.5,1,0.5,1.6c0,0.8-0.2,1.4-0.7,1.9c-0.5,0.5-1.2,0.7-2.2,0.7h-15.3c-1,0-1.7-0.2-2.2-0.7
	c-0.5-0.5-0.7-1.1-0.7-1.9c0-0.7,0.2-1.2,0.5-1.6c0.3-0.4,1-0.8,1.9-1l4.2-1.1V84.3c0-4.7-0.9-8-2.8-10.1c-1.8-2.1-4.5-3.1-7.9-3.1
	c-1.7,0-3.2,0.3-4.4,0.9c-1.3,0.6-2.4,1.2-3.4,2c-1,0.8-1.9,1.8-2.7,2.8v27.4l4.1,1.1c1,0.2,1.6,0.6,2,1c0.3,0.4,0.5,1,0.5,1.6
	c0,0.8-0.3,1.4-0.8,1.9c-0.5,0.5-1.2,0.7-2.1,0.7h-16.4c-1,0-1.7-0.2-2.2-0.7c-0.5-0.5-0.7-1.1-0.7-1.9c0-0.7,0.2-1.2,0.5-1.5
	c0.3-0.4,1-0.7,2-0.9l5.1-1.3V72.1z"/>
<path d="M582.1,72.1l-4.8-0.8c-1-0.2-1.6-0.5-2-0.8c-0.3-0.4-0.5-0.9-0.5-1.5c0-0.7,0.2-1.3,0.5-1.7c0.4-0.4,1.1-0.7,2.1-1
	c1-0.2,2.2-0.5,3.6-0.6c1.5-0.2,2.7-0.3,3.8-0.3c2.1,0,3.5,0.4,4.2,1.1c0.7,0.8,1.1,2.1,1.1,4.1v22.2c0,4.4,0.9,7.5,2.8,9.4
	c1.8,1.9,4.5,2.9,7.9,2.9c1.8,0,3.3-0.3,4.7-0.9c1.4-0.6,2.5-1.2,3.5-1.9c1.1-0.8,2.1-1.8,2.9-2.9V72.1l-5.4-0.8
	c-1-0.2-1.6-0.5-2-0.8c-0.3-0.4-0.5-0.9-0.5-1.5c0-0.7,0.2-1.3,0.5-1.7c0.4-0.4,1.1-0.7,2.1-1c1-0.2,2.3-0.5,3.7-0.6
	c1.4-0.2,2.9-0.3,4.4-0.3c2.1,0,3.5,0.4,4.2,1.1s1.1,2.1,1.1,4.1v33.7l4.7,0.5c0.9,0.2,1.6,0.4,2,0.8c0.4,0.3,0.6,0.8,0.6,1.5
	c0,0.7-0.2,1.3-0.6,1.7c-0.4,0.4-1.1,0.7-2,1c-0.9,0.3-2,0.6-3.3,0.8c-1.3,0.2-2.5,0.3-3.8,0.3c-1.8,0-3-0.4-3.8-1.2
	c-0.8-0.8-1.2-2-1.2-3.7v-1.7l-0.2-0.1c-0.8,1.3-1.9,2.5-3.2,3.5c-1.2,0.9-2.6,1.7-4.4,2.5c-1.8,0.7-4,1.1-6.7,1.1
	c-5.1,0-9.1-1.4-11.8-4.1c-2.8-2.8-4.1-6.8-4.1-12.2V72.1z"/>
<path d="M639.2,72.1l-5.4-0.8c-1-0.2-1.6-0.5-2-0.8c-0.3-0.4-0.5-0.9-0.5-1.5c0-0.7,0.2-1.3,0.5-1.7c0.4-0.4,1.1-0.7,2.1-1
	c1-0.2,2.2-0.5,3.6-0.6c1.4-0.2,2.7-0.3,4-0.3c1.9,0,3.3,0.4,4,1.1c0.7,0.7,1,2,1,3.9v1.6l0.2,0.1c0.8-1.3,1.9-2.5,3.3-3.5
	c1.1-0.8,2.5-1.6,4.3-2.4c1.8-0.8,4-1.1,6.6-1.1c5.3,0,9.4,1.4,12.2,4.3c2.8,2.8,4.2,7.1,4.2,12.9v22.1l4.5,1.2c1,0.2,1.6,0.6,2,1
	c0.3,0.4,0.5,0.9,0.5,1.6c0,0.8-0.2,1.4-0.7,1.9c-0.5,0.5-1.2,0.7-2.2,0.7h-16.3c-0.9,0-1.6-0.2-2.1-0.7c-0.5-0.5-0.8-1.1-0.8-1.9
	c0-0.7,0.2-1.2,0.5-1.6c0.3-0.4,1-0.7,2-1l4.5-1.2V84.3c0-4.7-1-8-2.9-10.1c-1.9-2.1-4.6-3.1-8.1-3.1c-1.8,0-3.4,0.3-4.7,0.9
	c-1.3,0.6-2.5,1.2-3.5,2c-1.1,0.8-2,1.8-2.8,2.8v27.4l4.5,1.2c1,0.2,1.6,0.6,1.9,1c0.3,0.4,0.5,0.9,0.5,1.6c0,0.8-0.2,1.4-0.7,1.9
	c-0.5,0.5-1.2,0.7-2.2,0.7h-16.8c-1,0-1.7-0.2-2.2-0.7s-0.7-1.1-0.7-1.9c0-0.7,0.2-1.2,0.5-1.5c0.3-0.4,1-0.7,2-0.9l5.1-1.3V72.1z"
	/>
<path d="M696.4,72.1l-5.4-0.8c-1-0.2-1.6-0.5-2-0.8c-0.3-0.4-0.5-0.9-0.5-1.5c0-0.7,0.2-1.3,0.5-1.7c0.4-0.4,1.1-0.7,2.1-1
	c1-0.2,2.3-0.5,3.7-0.6c1.4-0.2,2.9-0.3,4.3-0.3c2.1,0,3.5,0.4,4.3,1.1s1.1,2.1,1.1,4.1v33.6l4.6,1.2c0.9,0.2,1.5,0.6,1.9,1
	c0.3,0.4,0.5,0.9,0.5,1.5c0,0.8-0.3,1.4-0.8,1.9c-0.5,0.5-1.3,0.7-2.2,0.7h-16.8c-1,0-1.7-0.2-2.2-0.7s-0.7-1.1-0.7-1.9
	c0-0.7,0.2-1.2,0.5-1.5c0.3-0.4,1-0.7,2-0.9l5.1-1.3V72.1z M694.6,52.2c0-1.6,0.5-3,1.6-4.1c1.1-1.1,2.5-1.7,4.1-1.7s3,0.5,4,1.6
	c1.1,1.1,1.6,2.4,1.6,4c0,1.6-0.5,3-1.6,4.1c-1.1,1.1-2.5,1.7-4.1,1.7s-3-0.5-4-1.6C695.1,55.2,694.6,53.9,694.6,52.2z"/>
<path d="M722.5,71.5h-4.4c-2,0-3-0.8-3-2.5c0-1,0.3-1.7,0.9-2.3c0.6-0.6,1.5-0.9,2.7-0.9h3.7l1.4-6.9c0.4-2,0.8-3.4,1.5-4.1
	c0.6-0.7,1.5-1.1,2.5-1.1c0.9,0,1.6,0.2,2,0.7c0.5,0.5,0.7,1.1,0.7,2v9.4h9.4c2,0,3,0.8,3,2.5c0,1-0.3,1.8-0.9,2.4
	c-0.6,0.6-1.5,0.9-2.7,0.9h-8.7v25.4c0,2.9,0.4,4.9,1.3,6.1c0.9,1.1,2.3,1.7,4.2,1.7c1.3,0,2.4-0.1,3.2-0.4c0.8-0.2,1.5-0.4,2.1-0.4
	c0.6,0,1.1,0.2,1.4,0.5c0.3,0.4,0.5,0.8,0.5,1.5c0,0.4-0.1,0.8-0.3,1.2s-0.5,0.7-0.8,1.1c-0.4,0.4-1.3,0.9-2.7,1.6
	c-1.4,0.7-3.6,1-6.4,1c-3.9,0-6.7-1-8.3-3c-1.6-2-2.4-4.8-2.4-8.4V71.5z"/>
<path d="M750.8,72l-2.6-0.9c-1.2-0.4-1.9-0.8-2.3-1.3c-0.4-0.5-0.6-1.2-0.6-2c0-0.6,0.2-1.1,0.7-1.5s1.1-0.6,2-0.6h14.9
	c0.9,0,1.6,0.2,2,0.6c0.4,0.4,0.6,0.9,0.6,1.5c0,0.8-0.2,1.4-0.6,1.8c-0.4,0.4-1.2,0.8-2.3,1.3l-3.3,1l9.1,23.2
	c0.4,1.1,0.8,2.1,1.1,3c0.3,0.9,0.6,1.7,0.8,2.4c0.2,0.7,0.5,1.5,0.7,2.2h0.2c0.2-0.7,0.5-1.5,0.7-2.2c0.2-0.7,0.5-1.5,0.8-2.5
	c0.3-0.9,0.7-1.9,1.1-2.9l9.2-23.2l-3.3-1c-1.2-0.4-1.9-0.8-2.4-1.3c-0.4-0.4-0.6-1-0.6-1.8c0-0.6,0.2-1.1,0.7-1.5s1.1-0.6,2-0.6
	h13.4c0.9,0,1.6,0.2,2,0.6s0.7,0.9,0.7,1.5c0,0.8-0.2,1.4-0.6,2c-0.4,0.5-1.2,1-2.3,1.3l-2.6,0.9l-14.4,35c-2,5-4,9-6,12.3
	c-2,3.2-4,5.8-5.9,7.6c-1.9,1.9-3.9,3.2-5.9,3.9c-2,0.7-3.9,1.1-5.9,1.1c-2.2,0-3.8-0.4-4.9-1.2c-1.1-0.8-1.6-2-1.6-3.4
	c0-1.2,0.3-2.2,0.9-2.9c0.6-0.7,1.4-1,2.3-1c0.4,0,0.8,0,1.1,0.1c0.3,0.1,0.7,0.2,1.1,0.3c0.4,0.1,0.8,0.2,1.4,0.3
	c0.5,0.1,1.2,0.1,2,0.1c1.3,0,2.4-0.2,3.5-0.6c1-0.4,2-1.1,3-2c1-1,1.9-2.3,2.9-3.9c1-1.7,2-3.8,3.2-6.4L750.8,72z"/>
<path d="M855.3,56.4c-0.6-0.4-1.3-0.7-2.2-0.9c-0.8-0.2-1.9-0.4-3-0.5c-1.2-0.2-2.6-0.3-4.3-0.3c-3.7,0-6.5,0.8-8.4,2.5
	c-1.9,1.7-2.9,3.7-2.9,6.1c0,2.6,0.8,4.6,2.3,6.1c1.5,1.5,3.4,2.7,5.7,3.8c2.3,1,4.7,2,7.3,2.9c2.6,0.9,5,2,7.3,3.4
	c2.3,1.4,4.1,3.1,5.6,5.3c1.5,2.2,2.2,5.1,2.2,8.7c0,2.5-0.5,4.9-1.4,7.1c-0.9,2.2-2.3,4.1-4.2,5.6c-1.9,1.6-4.2,2.8-7.1,3.7
	c-2.8,0.9-6.1,1.3-9.9,1.3c-4.1,0-7.3-0.3-9.8-1c-2.5-0.6-4-1.3-4.8-2.1c-0.2-0.2-0.5-0.5-0.6-0.8s-0.3-0.6-0.4-1
	c-0.1-0.4-0.2-1-0.2-1.6c0-0.7,0-1.5,0-2.5v-1.4c0-1,0-1.9,0-2.6c0-0.7,0-1.7,0.1-3c0.1-1,0.3-1.6,0.7-2c0.4-0.4,1-0.6,1.7-0.6
	c1.4,0,2.3,0.9,2.8,2.6l2.2,7.9c0.6,0.4,1.4,0.8,2.4,1c0.9,0.3,2,0.5,3.3,0.7c1.3,0.2,2.9,0.2,4.8,0.2c3.9,0,6.9-0.9,9-2.8
	c2.1-1.9,3.1-4.2,3.1-7c0-2.1-0.4-3.8-1.3-5.1c-0.8-1.4-2-2.5-3.4-3.5c-1.4-1-3.1-1.8-4.9-2.5c-1.8-0.7-3.7-1.4-5.6-2.1
	c-1.9-0.7-3.8-1.5-5.6-2.4c-1.8-0.9-3.4-2-4.9-3.2c-1.4-1.3-2.6-2.8-3.5-4.6c-0.9-1.8-1.3-4-1.3-6.6c0-2.4,0.5-4.5,1.4-6.5
	c0.9-2,2.3-3.7,4.1-5.2c1.8-1.5,4.1-2.6,6.8-3.5c2.7-0.8,6-1.3,9.7-1.3c3.6,0,6.5,0.3,8.8,0.9c2.3,0.6,3.8,1.3,4.6,2
	c0.2,0.2,0.4,0.5,0.6,0.8c0.2,0.3,0.3,0.6,0.4,1.1c0.1,0.5,0.2,1,0.2,1.7c0,0.7,0,1.5,0,2.5v1.1c0,1,0,1.9,0,2.6c0,0.7,0,1.7-0.1,3
	c-0.1,1-0.4,1.6-0.8,2c-0.4,0.4-1,0.6-1.7,0.6c-0.7,0-1.3-0.2-1.7-0.6c-0.4-0.4-0.8-1.1-1.1-2L855.3,56.4z"/>
<path d="M901,71.6c-0.3-0.1-0.7-0.2-1.1-0.4c-0.4-0.1-0.8-0.2-1.3-0.3c-0.5-0.1-1.2-0.1-2-0.1c-4.2,0-7.6,1.5-10.2,4.4
	s-3.9,7.3-3.9,13.1c0,5.6,1.3,9.9,4,12.7c2.6,2.8,6.1,4.3,10.5,4.3c1.3,0,2.4-0.1,3.3-0.3c0.9-0.2,1.7-0.4,2.4-0.5
	c0.7-0.2,1.2-0.3,1.7-0.5c0.5-0.2,0.9-0.2,1.4-0.2c0.7,0,1.3,0.2,1.6,0.5c0.4,0.4,0.5,0.9,0.5,1.5c0,0.8-0.3,1.5-0.9,2.2
	c-0.4,0.4-1,0.8-1.7,1.2c-0.7,0.4-1.6,0.8-2.7,1.1c-1.1,0.3-2.3,0.6-3.6,0.8c-1.3,0.2-2.8,0.3-4.3,0.3c-6.4,0-11.4-1.9-15.1-5.7
	c-3.7-3.8-5.5-9.2-5.5-16.2c0-3.7,0.6-7.1,1.8-10.1c1.2-3,2.8-5.6,4.9-7.8c2.1-2.1,4.5-3.8,7.4-5c2.9-1.2,6-1.8,9.5-1.8
	c2.3,0,4.2,0.2,5.8,0.6c1.5,0.4,2.6,0.9,3.3,1.5c0.4,0.5,0.7,1,0.9,1.7c0.2,0.6,0.2,1.9,0.2,3.9v0.6c0,0.8,0,1.6,0,2.2
	c0,0.6,0,1.5-0.1,2.7c-0.1,1-0.3,1.7-0.7,2c-0.4,0.4-1,0.6-1.7,0.6s-1.3-0.2-1.7-0.6c-0.4-0.4-0.8-1.1-1-2L901,71.6z"/>
<path d="M922.5,72.1l-5.4-0.8c-1-0.2-1.6-0.5-2-0.8c-0.3-0.4-0.5-0.9-0.5-1.5c0-0.7,0.2-1.3,0.5-1.7c0.4-0.4,1.1-0.7,2.1-1
	c1-0.2,2.3-0.5,3.7-0.6c1.4-0.2,2.9-0.3,4.3-0.3c2.1,0,3.5,0.4,4.3,1.1s1.1,2.1,1.1,4.1v33.6l4.6,1.2c0.9,0.2,1.5,0.6,1.9,1
	c0.3,0.4,0.5,0.9,0.5,1.5c0,0.8-0.3,1.4-0.8,1.9c-0.5,0.5-1.3,0.7-2.2,0.7h-16.8c-1,0-1.7-0.2-2.2-0.7s-0.7-1.1-0.7-1.9
	c0-0.7,0.2-1.2,0.5-1.5c0.3-0.4,1-0.7,2-0.9l5.1-1.3V72.1z M920.7,52.2c0-1.6,0.5-3,1.6-4.1c1.1-1.1,2.5-1.7,4.1-1.7s3,0.5,4,1.6
	c1.1,1.1,1.6,2.4,1.6,4c0,1.6-0.5,3-1.6,4.1c-1.1,1.1-2.5,1.7-4.1,1.7c-1.6,0-3-0.5-4-1.6C921.2,55.2,920.7,53.9,920.7,52.2z"/>
<path d="M952.4,88.6c0.2,5.4,1.6,9.6,4.3,12.3c2.7,2.8,6.4,4.2,11,4.2c1.6,0,3-0.1,4.1-0.3s2-0.4,2.8-0.6c0.8-0.2,1.4-0.5,2-0.6
	c0.5-0.2,1-0.3,1.4-0.3c0.7,0,1.3,0.2,1.6,0.6c0.4,0.4,0.5,0.9,0.5,1.6c0,0.4-0.1,0.8-0.2,1.1c-0.2,0.3-0.4,0.7-0.8,1
	c-0.8,0.8-2.4,1.6-4.8,2.4c-2.4,0.8-5.4,1.2-9.1,1.2c-3.3,0-6.2-0.5-8.9-1.5c-2.6-1-4.9-2.4-6.7-4.3c-1.8-1.9-3.2-4.2-4.2-6.9
	c-1-2.8-1.5-5.9-1.5-9.5c0-3.8,0.5-7.1,1.6-10.1c1.1-3,2.6-5.5,4.5-7.6c1.9-2.1,4.1-3.7,6.7-4.8c2.6-1.1,5.3-1.7,8.3-1.7
	c5.1,0,9.2,1.6,12.3,4.8c3,3.2,4.5,7.7,4.5,13.7c0,1.8-0.4,3.2-1.3,4c-0.8,0.9-2.1,1.3-3.7,1.3H952.4z M973.9,83.6
	c-0.1-4.3-1.1-7.5-3-9.6c-1.9-2.1-4.2-3.2-6.9-3.2c-3.1,0-5.7,1.2-7.7,3.5c-2,2.3-3.2,5.4-3.6,9.3H973.9z"/>
<path d="M996.8,72.1l-5.4-0.8c-1-0.2-1.6-0.5-2-0.8c-0.3-0.4-0.5-0.9-0.5-1.5c0-0.7,0.2-1.3,0.5-1.7c0.4-0.4,1.1-0.7,2.1-1
	c1-0.2,2.2-0.5,3.6-0.6c1.4-0.2,2.7-0.3,4-0.3c1.9,0,3.3,0.4,4,1.1c0.7,0.7,1,2,1,3.9v1.6l0.2,0.1c0.8-1.3,1.9-2.5,3.3-3.5
	c1.1-0.8,2.5-1.6,4.3-2.4c1.8-0.8,4-1.1,6.6-1.1c5.3,0,9.4,1.4,12.2,4.3c2.8,2.8,4.2,7.1,4.2,12.9v22.1l4.5,1.2c1,0.2,1.6,0.6,2,1
	c0.3,0.4,0.5,0.9,0.5,1.6c0,0.8-0.2,1.4-0.7,1.9s-1.2,0.7-2.2,0.7h-16.3c-0.9,0-1.6-0.2-2.1-0.7c-0.5-0.5-0.8-1.1-0.8-1.9
	c0-0.7,0.2-1.2,0.5-1.6c0.3-0.4,1-0.7,2-1l4.5-1.2V84.3c0-4.7-1-8-2.9-10.1c-1.9-2.1-4.6-3.1-8.1-3.1c-1.8,0-3.4,0.3-4.7,0.9
	c-1.3,0.6-2.5,1.2-3.5,2c-1.1,0.8-2,1.8-2.8,2.8v27.4l4.5,1.2c1,0.2,1.6,0.6,1.9,1c0.3,0.4,0.5,0.9,0.5,1.6c0,0.8-0.2,1.4-0.7,1.9
	s-1.2,0.7-2.2,0.7h-16.8c-1,0-1.7-0.2-2.2-0.7c-0.5-0.5-0.7-1.1-0.7-1.9c0-0.7,0.2-1.2,0.5-1.5c0.3-0.4,1-0.7,2-0.9l5.1-1.3V72.1z"
	/>
<g class="st1">
	<path d="M1074.9,71.6c-0.3-0.1-0.7-0.2-1.1-0.4c-0.4-0.1-0.8-0.2-1.3-0.3c-0.5-0.1-1.2-0.1-2-0.1c-4.2,0-7.6,1.5-10.2,4.4
		s-3.9,7.3-3.9,13.1c0,5.6,1.3,9.9,4,12.7c2.6,2.8,6.1,4.3,10.5,4.3c1.3,0,2.4-0.1,3.3-0.3c0.9-0.2,1.7-0.4,2.4-0.5
		c0.7-0.2,1.2-0.3,1.7-0.5c0.5-0.2,0.9-0.2,1.4-0.2c0.7,0,1.3,0.2,1.6,0.5c0.4,0.4,0.5,0.9,0.5,1.5c0,0.8-0.3,1.5-0.9,2.2
		c-0.4,0.4-1,0.8-1.7,1.2c-0.7,0.4-1.6,0.8-2.7,1.1c-1.1,0.3-2.3,0.6-3.6,0.8c-1.3,0.2-2.8,0.3-4.3,0.3c-6.4,0-11.4-1.9-15.1-5.7
		c-3.7-3.8-5.5-9.2-5.5-16.2c0-3.7,0.6-7.1,1.8-10.1c1.2-3,2.8-5.6,4.9-7.8c2.1-2.1,4.5-3.8,7.4-5c2.9-1.2,6-1.8,9.5-1.8
		c2.3,0,4.2,0.2,5.8,0.6c1.5,0.4,2.6,0.9,3.3,1.5c0.4,0.5,0.7,1,0.9,1.7c0.2,0.6,0.2,1.9,0.2,3.9v0.6c0,0.8,0,1.6,0,2.2
		c0,0.6,0,1.5-0.1,2.7c-0.1,1-0.3,1.7-0.7,2c-0.4,0.4-1,0.6-1.7,0.6s-1.3-0.2-1.7-0.6c-0.4-0.4-0.8-1.1-1-2L1074.9,71.6z"/>
</g>
<g class="st1">
	<path d="M1098.4,88.6c0.2,5.4,1.6,9.6,4.3,12.3c2.7,2.8,6.4,4.2,11,4.2c1.6,0,3-0.1,4.1-0.3c1.1-0.2,2-0.4,2.8-0.6
		c0.8-0.2,1.4-0.5,2-0.6c0.5-0.2,1-0.3,1.4-0.3c0.7,0,1.3,0.2,1.6,0.6c0.4,0.4,0.5,0.9,0.5,1.6c0,0.4-0.1,0.8-0.2,1.1
		c-0.2,0.3-0.4,0.7-0.8,1c-0.8,0.8-2.4,1.6-4.8,2.4c-2.4,0.8-5.4,1.2-9.1,1.2c-3.3,0-6.2-0.5-8.9-1.5c-2.6-1-4.9-2.4-6.7-4.3
		c-1.8-1.9-3.2-4.2-4.2-6.9c-1-2.8-1.5-5.9-1.5-9.5c0-3.8,0.5-7.1,1.6-10.1c1.1-3,2.6-5.5,4.5-7.6c1.9-2.1,4.1-3.7,6.7-4.8
		c2.6-1.1,5.3-1.7,8.3-1.7c5.1,0,9.2,1.6,12.3,4.8c3,3.2,4.5,7.7,4.5,13.7c0,1.8-0.4,3.2-1.3,4c-0.8,0.9-2.1,1.3-3.7,1.3H1098.4z
		 M1119.9,83.6c-0.1-4.3-1.1-7.5-3-9.6c-1.9-2.1-4.2-3.2-6.9-3.2c-3.1,0-5.7,1.2-7.7,3.5c-2,2.3-3.2,5.4-3.6,9.3H1119.9z"/>
</g>
<g class="st1">
	<path class="st0" d="M310.6,164.6l-4-1c-1.2-0.3-1.9-0.7-2.3-1.2c-0.4-0.5-0.6-1.2-0.6-2c0-0.6,0.2-1.1,0.6-1.5
		c0.4-0.4,1.1-0.6,2-0.6h12.3c1.1,0,2,0.2,2.6,0.7c0.6,0.5,1.1,1.2,1.5,2.1l13.3,41c0.4,1.3,0.8,2.5,1.1,3.6c0.3,1.1,0.6,2,0.8,2.8
		c0.2,1,0.5,1.8,0.6,2.5h0.2c0.2-0.8,0.5-1.7,0.7-2.6c0.2-0.8,0.5-1.7,0.8-2.8s0.7-2.3,1.1-3.6l13.3-40.9c0.6-1.9,2-2.8,4.2-2.8
		h12.3c0.8,0,1.5,0.2,2,0.6c0.5,0.4,0.7,0.9,0.7,1.5c0,0.8-0.2,1.4-0.6,2c-0.4,0.5-1.2,0.9-2.3,1.2l-4,1l5.6,48.6l3.4,1.1
		c1.1,0.4,1.8,0.7,2.1,1.1c0.3,0.4,0.5,0.9,0.5,1.6c0,0.8-0.2,1.4-0.7,1.8c-0.5,0.4-1.2,0.7-2.2,0.7h-15.3c-1,0-1.7-0.2-2.2-0.7
		c-0.5-0.4-0.7-1.1-0.7-1.8c0-0.6,0.2-1.1,0.6-1.5c0.4-0.4,1.2-0.8,2.5-1.2l3.5-1.1l-3.7-35.5c-0.1-1.3-0.2-2.6-0.3-3.9
		s-0.2-2.5-0.2-3.5c-0.1-1.2-0.1-2.4-0.2-3.5h-0.2l-15.6,47.8c-0.7,2.1-1.4,3.5-2.3,4.2c-0.8,0.7-2,1-3.5,1c-1.4,0-2.5-0.3-3.4-1
		c-0.8-0.7-1.6-2.1-2.3-4.2l-15.6-47.8h-0.2c0,1.1,0,2.2-0.1,3.5c-0.1,1-0.1,2.2-0.2,3.5c-0.1,1.3-0.2,2.6-0.3,3.9l-3.7,35.6
		l3.5,1.1c1.3,0.4,2.1,0.7,2.5,1.2s0.6,0.9,0.6,1.5c0,0.8-0.2,1.4-0.7,1.8c-0.5,0.4-1.2,0.7-2.2,0.7h-13.9c-1,0-1.7-0.2-2.2-0.7
		c-0.5-0.4-0.8-1.1-0.8-1.8c0-0.7,0.2-1.2,0.5-1.6c0.4-0.4,1.1-0.8,2.2-1.1l3.4-1.1L310.6,164.6z"/>
</g>
<path class="st0" d="M388.6,181.1l-4.8-0.8c-1-0.2-1.6-0.5-2-0.8c-0.3-0.4-0.5-0.9-0.5-1.5c0-0.7,0.2-1.3,0.5-1.7
	c0.4-0.4,1.1-0.7,2.1-1c1-0.2,2.2-0.5,3.6-0.6c1.5-0.2,2.7-0.3,3.8-0.3c2.1,0,3.5,0.4,4.2,1.1c0.7,0.8,1.1,2.1,1.1,4.1v22.2
	c0,4.4,0.9,7.5,2.8,9.4c1.8,1.9,4.5,2.9,7.9,2.9c1.8,0,3.3-0.3,4.7-0.9c1.4-0.6,2.5-1.2,3.5-1.9c1.1-0.8,2.1-1.8,2.9-2.9v-27.3
	l-5.4-0.8c-1-0.2-1.6-0.5-2-0.8c-0.3-0.4-0.5-0.9-0.5-1.5c0-0.7,0.2-1.3,0.5-1.7c0.4-0.4,1.1-0.7,2.1-1c1-0.2,2.3-0.5,3.7-0.6
	c1.4-0.2,2.9-0.3,4.4-0.3c2.1,0,3.5,0.4,4.2,1.1s1.1,2.1,1.1,4.1v33.7l4.7,0.5c0.9,0.2,1.6,0.4,2,0.8c0.4,0.3,0.6,0.8,0.6,1.5
	c0,0.7-0.2,1.3-0.6,1.7c-0.4,0.4-1.1,0.7-2,1c-0.9,0.3-2,0.6-3.3,0.8c-1.3,0.2-2.5,0.3-3.8,0.3c-1.8,0-3-0.4-3.8-1.2
	c-0.8-0.8-1.2-2-1.2-3.7v-1.7l-0.2-0.1c-0.8,1.3-1.9,2.5-3.2,3.5c-1.2,0.9-2.6,1.7-4.4,2.5c-1.8,0.7-4,1.1-6.7,1.1
	c-5.1,0-9.1-1.4-11.8-4.1c-2.8-2.8-4.1-6.8-4.1-12.2V181.1z"/>
<path class="st0" d="M447.9,213.1c0.5,0.3,1.2,0.5,2,0.7c0.6,0.2,1.4,0.4,2.5,0.6c1,0.2,2.2,0.2,3.6,0.2c3.3,0,5.6-0.6,7-1.8
	c1.4-1.2,2.1-2.8,2.1-4.8c0-1.7-0.6-3.1-1.8-4.1c-1.2-1-2.7-1.9-4.4-2.7c-1.8-0.8-3.7-1.5-5.8-2.1s-4-1.5-5.8-2.5
	c-1.8-1-3.2-2.3-4.4-3.9c-1.2-1.6-1.8-3.7-1.8-6.2c0-1.7,0.4-3.3,1.1-4.9s1.8-2.9,3.4-4c1.5-1.1,3.4-2.1,5.6-2.8
	c2.2-0.7,4.9-1,7.9-1c2.9,0,5.3,0.2,7.1,0.7c1.8,0.5,3.1,1,3.7,1.6c0.5,0.4,0.8,0.9,0.9,1.5c0.1,0.6,0.2,1.6,0.2,3.1v0.6
	c0,0.7,0,1.3,0,1.8c0,0.5,0,1.2-0.1,2.2c-0.1,0.9-0.3,1.6-0.7,2c-0.4,0.4-1,0.6-1.6,0.6c-0.7,0-1.2-0.2-1.6-0.6c-0.4-0.4-0.7-1-1-2
	l-1.3-4.8c-0.5-0.1-1.2-0.3-1.9-0.5c-0.6-0.1-1.4-0.3-2.2-0.4c-0.9-0.2-1.9-0.2-3.1-0.2c-3.1,0-5.3,0.5-6.6,1.6
	c-1.3,1.1-1.9,2.4-1.9,4.1c0,1.7,0.6,3,1.8,4c1.2,1,2.7,1.8,4.5,2.5c1.8,0.7,3.7,1.4,5.8,2c2.1,0.7,4,1.5,5.8,2.6
	c1.8,1.1,3.3,2.4,4.5,4c1.2,1.6,1.8,3.8,1.8,6.4c0,1.9-0.4,3.6-1.1,5.3c-0.8,1.7-1.9,3.1-3.5,4.3s-3.5,2.2-5.8,2.9
	c-2.3,0.7-5,1.1-8.2,1.1c-3.3,0-5.9-0.3-7.9-0.9c-2-0.6-3.3-1.2-3.9-1.9c-0.5-0.4-0.8-0.9-1-1.5c-0.2-0.6-0.2-1.6-0.2-3.1v-0.7
	c0-0.8,0-1.4,0-2c0-0.5,0-1.2,0.1-2.1c0.1-1,0.4-1.6,0.8-2c0.4-0.4,1-0.5,1.6-0.5c0.7,0,1.2,0.2,1.6,0.5c0.4,0.4,0.7,1,1,2
	L447.9,213.1z"/>
<path class="st0" d="M490.4,197.6c0.2,5.4,1.6,9.6,4.3,12.3c2.7,2.8,6.4,4.2,11,4.2c1.6,0,3-0.1,4.1-0.3c1.1-0.2,2-0.4,2.8-0.6
	c0.8-0.2,1.4-0.5,2-0.6c0.5-0.2,1-0.3,1.4-0.3c0.7,0,1.3,0.2,1.6,0.6c0.4,0.4,0.5,0.9,0.5,1.6c0,0.4-0.1,0.8-0.2,1.1
	c-0.2,0.3-0.4,0.7-0.8,1c-0.8,0.8-2.4,1.6-4.8,2.4c-2.4,0.8-5.4,1.2-9.1,1.2c-3.3,0-6.2-0.5-8.9-1.5c-2.6-1-4.9-2.4-6.7-4.3
	c-1.8-1.9-3.2-4.2-4.2-6.9c-1-2.8-1.5-5.9-1.5-9.5c0-3.8,0.5-7.1,1.6-10.1c1.1-3,2.6-5.5,4.5-7.6c1.9-2.1,4.1-3.7,6.7-4.8
	c2.6-1.1,5.3-1.7,8.3-1.7c5.1,0,9.2,1.6,12.3,4.8c3,3.2,4.5,7.7,4.5,13.7c0,1.8-0.4,3.2-1.3,4c-0.8,0.9-2.1,1.3-3.7,1.3H490.4z
	 M511.9,192.5c-0.1-4.3-1.1-7.5-3-9.6c-1.9-2.1-4.2-3.2-6.9-3.2c-3.1,0-5.7,1.2-7.7,3.5c-2,2.3-3.2,5.4-3.6,9.3H511.9z"/>
<path class="st0" d="M533.5,181.1l-4.8-0.8c-1-0.2-1.6-0.5-2-0.8c-0.3-0.4-0.5-0.9-0.5-1.5c0-0.7,0.2-1.3,0.5-1.7
	c0.4-0.4,1.1-0.7,2.1-1c1-0.2,2.2-0.5,3.6-0.6c1.5-0.2,2.7-0.3,3.8-0.3c2.1,0,3.5,0.4,4.2,1.1c0.7,0.8,1.1,2.1,1.1,4.1v22.2
	c0,4.4,0.9,7.5,2.8,9.4c1.8,1.9,4.5,2.9,7.9,2.9c1.8,0,3.3-0.3,4.7-0.9c1.4-0.6,2.5-1.2,3.5-1.9c1.1-0.8,2.1-1.8,2.9-2.9v-27.3
	l-5.4-0.8c-1-0.2-1.6-0.5-2-0.8c-0.3-0.4-0.5-0.9-0.5-1.5c0-0.7,0.2-1.3,0.5-1.7c0.4-0.4,1.1-0.7,2.1-1c1-0.2,2.3-0.5,3.7-0.6
	c1.4-0.2,2.9-0.3,4.4-0.3c2.1,0,3.5,0.4,4.2,1.1c0.7,0.8,1.1,2.1,1.1,4.1v33.7l4.7,0.5c0.9,0.2,1.6,0.4,2,0.8
	c0.4,0.3,0.6,0.8,0.6,1.5c0,0.7-0.2,1.3-0.6,1.7c-0.4,0.4-1.1,0.7-2,1c-0.9,0.3-2,0.6-3.3,0.8c-1.3,0.2-2.5,0.3-3.8,0.3
	c-1.8,0-3-0.4-3.8-1.2c-0.8-0.8-1.2-2-1.2-3.7v-1.7l-0.2-0.1c-0.8,1.3-1.9,2.5-3.2,3.5c-1.2,0.9-2.6,1.7-4.4,2.5
	c-1.8,0.7-4,1.1-6.7,1.1c-5.1,0-9.1-1.4-11.8-4.1c-2.8-2.8-4.1-6.8-4.1-12.2V181.1z"/>
<path class="st0" d="M590.6,181.1l-5.4-0.8c-1-0.2-1.6-0.5-2-0.8c-0.3-0.4-0.5-0.9-0.5-1.5c0-0.7,0.2-1.3,0.5-1.7
	c0.4-0.4,1.1-0.7,2.1-1c1-0.2,2.2-0.5,3.6-0.6c1.4-0.2,2.7-0.3,4-0.3c1.9,0,3.3,0.4,4,1.1c0.7,0.7,1,2,1,3.9v1.6l0.2,0.1
	c0.8-1.3,1.9-2.5,3.2-3.5c1-0.8,2.4-1.6,4.2-2.4s3.9-1.1,6.4-1.1c3.5,0,6.4,0.7,8.8,2c2.4,1.3,4.2,3.3,5.4,5.9
	c1-1.5,2.2-2.8,3.6-3.9c1.2-1,2.8-2,4.6-2.8c1.9-0.8,4.1-1.2,6.8-1.2c5.1,0,9.1,1.4,11.9,4.3c2.8,2.8,4.2,7.1,4.2,12.9v22.1l4.5,1.2
	c1,0.2,1.6,0.6,2,1c0.3,0.4,0.5,0.9,0.5,1.6c0,0.8-0.3,1.4-0.8,1.9c-0.5,0.5-1.2,0.7-2.1,0.7h-15.9c-0.9,0-1.6-0.2-2.1-0.7
	c-0.5-0.5-0.8-1.1-0.8-1.9c0-0.7,0.2-1.2,0.5-1.6c0.3-0.4,1-0.8,2-1l4.1-1.1v-19.9c0-4.7-0.9-8-2.8-10.1c-1.8-2.1-4.4-3.1-7.8-3.1
	c-1.8,0-3.3,0.3-4.7,1c-1.4,0.6-2.5,1.3-3.5,2.1c-1.1,0.9-2.1,1.9-2.9,3.1c0.1,0.3,0.2,0.7,0.3,1.1c0,0.4,0,0.9,0.1,1.5
	c0.1,0.6,0.1,1.4,0.1,2.2v22.1l4.2,1.1c0.9,0.2,1.5,0.6,1.9,1c0.3,0.4,0.5,1,0.5,1.6c0,0.8-0.2,1.4-0.7,1.9
	c-0.5,0.5-1.2,0.7-2.2,0.7h-15.3c-1,0-1.7-0.2-2.2-0.7c-0.5-0.5-0.7-1.1-0.7-1.9c0-0.7,0.2-1.2,0.5-1.6c0.3-0.4,1-0.8,1.9-1l4.2-1.1
	v-19.9c0-4.7-0.9-8-2.8-10.1c-1.8-2.1-4.5-3.1-7.9-3.1c-1.7,0-3.2,0.3-4.4,0.9c-1.3,0.6-2.4,1.2-3.4,2c-1,0.8-1.9,1.8-2.7,2.8v27.4
	l4.1,1.1c1,0.2,1.6,0.6,2,1c0.3,0.4,0.5,1,0.5,1.6c0,0.8-0.3,1.4-0.8,1.9c-0.5,0.5-1.2,0.7-2.1,0.7h-16.4c-1,0-1.7-0.2-2.2-0.7
	s-0.7-1.1-0.7-1.9c0-0.7,0.2-1.2,0.5-1.5c0.3-0.4,1-0.7,2-0.9l5.1-1.3V181.1z"/>
</svg>
