<svg id="Layer_1" data-name="Layer 1" xmlns="http://www.w3.org/2000/svg" viewBox="0 0 1140 278"><defs><style>.cls-1{fill:#a5d35e;}.cls-2{font-size:90.8px;font-family:Rooney-Regular, Rooney;}.cls-3{letter-spacing:-0.02em;}.cls-4{letter-spacing:0em;}.cls-5{letter-spacing:0em;}.cls-6{letter-spacing:0em;}.cls-7{letter-spacing:0em;}</style></defs><title>logo</title><path d="M45.89,153.59c30.5-30.26,68-54.6,107.15-72.17,15.69-7,32.18-13.19,49.18-16.13,8.9-1.53,22.7-3.52,30.13,3.26,6.72,6.15,2.16,16.94-1.35,23.52-7.25,13.58-18.29,25.13-29.42,35.6-30.92,29.08-68.38,52.82-107.41,69.4-16.54,7-34.49,13.57-52.57,14.74-5.62.36-11.75.36-17-1.88-9.45-4-7.88-14-4.65-22,1.45-3.58-4.35-5.13-5.78-1.59-3.17,7.82-5,17.58,1.28,24.44,3.35,3.66,8.19,5.56,13,6.43,14.54,2.64,30.28-1.43,44.09-5.74,43.42-13.57,84.48-38.37,119.37-67.27,14.4-11.93,28.32-25.12,39-40.55,6-8.6,13-20.5,10.31-31.47-2.45-9.86-12.62-13.37-21.72-14-15.72-1.13-32,3.74-46.68,8.89-24.12,8.49-47.09,20.35-68.75,33.87-22.34,13.94-43.69,29.86-62.41,48.43-2.74,2.72,1.5,7,4.25,4.24Z"/><path d="M230.52,215.47c29.36-12.86-5.32-51.87-17.21-64-32.45-33.22-73.87-59.71-116.48-77.84C80.11,66.48,62.42,60.19,44.22,58.4c-10-1-23.5-.78-30,8.3-6,8.44-2.06,19.73,2.26,28,7.93,15.09,20.43,27.94,32.87,39.36,20,18.41,42.56,34.26,66.07,47.9,21.65,12.57,44.58,23.54,68.65,30.66,3.71,1.09,5.29-4.7,1.59-5.79-41.17-12.17-80.12-35-113.71-61.44C57.54,134,43.63,121.55,32.11,107.2,25.52,99,16.51,87.32,17.17,76.07c.56-9.49,10.63-11.8,18.53-12,15-.4,30.23,4.26,44.21,9.28,41,14.71,79.93,38.6,112.79,67,13.88,12,27.8,25.39,37.07,41.4,5.51,9.51,10.6,22.91-2.28,28.55-3.53,1.54-.48,6.72,3,5.18Z"/><path d="M147,19.77C140.54,9,128.34.11,116.33,8.38,105.56,15.79,100.08,30.11,96.12,42c-6.77,20.26-9.94,41.75-11.66,63a402.61,402.61,0,0,0,1,76.37c2.2,20,5.69,40.36,13,59.2,4.14,10.64,10.15,24.12,21.34,29,9.64,4.22,18.47-1.73,24.24-9.3,9.68-12.71,14.37-29.35,17.86-44.68,6-26.51,8-53.9,7.91-81,0-26.14-2-52.56-8.35-78-.94-3.75-6.73-2.16-5.79,1.59,5.14,20.41,7.26,41.45,7.92,62.45a421.24,421.24,0,0,1-3,67.74c-2.37,18.09-6,36.61-13.14,53.48-3.42,8-9.17,20.86-18.84,23s-16.52-9.45-20.19-16.46c-7.65-14.64-11.47-31.39-14.29-47.55-7.5-43.1-7.32-89.17,1.22-132.1,3.27-16.38,7.6-34.24,17.39-48.11,2.72-3.84,6.41-8,11.18-9.23,8-2,14.23,5.42,17.88,11.49,2,3.31,7.18.29,5.18-3Z"/><circle class="cls-1" cx="151.7" cy="38.65" r="10.95"/><circle class="cls-1" cx="30.8" cy="170.49" r="10.95"/><circle class="cls-1" cx="206.92" cy="214.27" r="10.95"/><text class="cls-2" transform="translate(297.01 110.44)"><tspan class="cls-3">C<tspan class="cls-4" x="52.57" y="0">ommunity Scien</tspan><tspan class="cls-5" x="746.83" y="0">c</tspan><tspan class="cls-6" x="788.78" y="0">e </tspan></tspan><tspan class="cls-1"><tspan class="cls-7" x="0" y="108.96">M</tspan><tspan x="82.81" y="108.96">useum </tspan></tspan></text></svg>