<?xml version="1.0" encoding="utf-8"?>
<!-- Generator: Adobe Illustrator 23.0.4, SVG Export Plug-In . SVG Version: 6.00 Build 0)  -->
<svg version="1.1" id="Layer_1" xmlns="http://www.w3.org/2000/svg" xmlns:xlink="http://www.w3.org/1999/xlink" x="0px" y="0px"
	 viewBox="0 0 1125 1125" style="enable-background:new 0 0 1125 1125;" xml:space="preserve">
<style type="text/css">
	.st0{fill:#FFFFFF;}
</style>
<title>Artboard 1 copy 2</title>
<path class="st0" d="M562.2,1122C254.3,1122,4.7,872.4,4.7,564.5S254.3,7,562.2,7s557.5,249.6,557.5,557.5S870.1,1122,562.2,1122z
	 M160.7,825.2c27.3,17.1,56.3,31.2,86.6,42.2c75.9,27.7,153.9,34.8,233.7,24c89.8-12.1,170.2-46.1,237.8-106.6
	c107.7-96.3,162.8-217.9,165.7-362.3c0.3-17.9,5.8-28.1,19.4-38.5c24.6-18.8,44.9-42.2,63.4-70.4c-31,12.8-60.3,21.5-92.2,25.1
	c42.6-35.4,64.3-63.9,68.3-89.4c-2.8-0.7-4.7,1.5-6.7,2.6c-27.3,15.2-56.3,25.9-86.7,33.4c-7.8,1.9-12.7,0.3-18.3-5.1
	c-55.9-54-147.5-60.8-210.1-14.5c-56,41.4-78.6,97.4-67.6,166.4c1.1,6.7-0.3,8.3-7,7.4c-13.1-1.8-26.3-2.3-39.3-4.4
	C397,417.3,303.7,367.2,227.7,284.9c-5.6-6.1-11-12.5-16.9-19.3c-21.6,38.8-27.5,78.8-18.2,120.8s33,75,69,101.7
	c-15.1-0.9-27.4-2.8-39.4-6.2s-23.1-8.5-35.2-14.2c0,40.6,12.2,75.5,36.5,106s55.8,49.7,95.7,59.3c-25.2,7.4-48.8,6.4-73.8,3.6
	c27.7,71,78.6,109.1,153.2,115.8c-1.3,3.8-4.2,4.8-6.5,6.5c-67.7,49.1-143.6,69.1-226.6,63.8C163,822,160.4,821,160.7,825.2z
	 M157.1,822.3c-0.8,0.8,1.5,2.8,3.5,2.8c0.8-2.3,3.3-1.4,4.7-2.5C162.6,821.3,159.6,819.6,157.1,822.3L157.1,822.3z"/>
</svg>
