<svg id="Layer_1" data-name="Layer 1" xmlns="http://www.w3.org/2000/svg" viewBox="0 0 1125 1125"><defs><style>.cls-1{fill:#fff;}</style></defs><title>Artboard 1 copy 2</title><path class="cls-1" d="M562.2,1122C254.3,1122,4.7,872.4,4.7,564.5S254.3,7,562.2,7s557.49,249.61,557.49,557.5S870.09,1122,562.2,1122ZM160.66,825.18a457.49,457.49,0,0,0,86.56,42.2c75.87,27.74,153.86,34.76,233.67,24,89.78-12.06,170.19-46.13,237.8-106.58C826.43,688.49,881.54,566.93,884.37,422.5c.35-17.94,5.8-28.15,19.39-38.52,24.63-18.8,44.88-42.19,63.4-70.39-31,12.77-60.33,21.51-92.15,25.09,42.59-35.38,64.32-63.93,68.3-89.36-2.85-.71-4.69,1.47-6.71,2.59-27.33,15.24-56.34,25.9-86.69,33.37-7.82,1.92-12.66.34-18.31-5.12-55.86-54-147.5-60.76-210.1-14.48-56,41.42-78.58,97.4-67.64,166.41,1.06,6.71-.33,8.34-7,7.43-13.06-1.78-26.32-2.29-39.32-4.39Q341.76,408.34,227.66,284.94c-5.64-6.11-11-12.49-16.95-19.28-21.57,38.84-27.47,78.8-18.18,120.81s33,75,69,101.69c-15.15-.94-27.42-2.84-39.43-6.18S199,473.51,186.9,467.77c0,40.65,12.16,75.54,36.48,106s55.75,49.71,95.67,59.3c-25.24,7.44-48.79,6.38-73.83,3.58,27.73,71,78.62,109.07,153.22,115.77-1.27,3.82-4.25,4.84-6.51,6.49C324.24,808,248.36,828.06,165.33,822.7,163,822.05,160.43,821,160.66,825.18Zm-3.54-2.83c-.76.84,1.53,2.78,3.54,2.83.75-2.34,3.26-1.38,4.67-2.48C162.6,821.34,159.55,819.63,157.12,822.35Z"/></svg>