<svg id="Layer_1" data-name="Layer 1" xmlns="http://www.w3.org/2000/svg" viewBox="0 0 1140 278"><defs><style>.cls-1{fill:#fff;}.cls-2{isolation:isolate;}</style></defs><title>whitelogo</title><path class="cls-1" d="M45.89,153.59c30.5-30.26,68-54.6,107.15-72.17,15.69-7,32.18-13.19,49.18-16.13,8.9-1.53,22.7-3.52,30.13,3.26,6.72,6.15,2.16,16.94-1.35,23.52-7.25,13.58-18.29,25.13-29.42,35.6-30.92,29.08-68.38,52.82-107.41,69.4-16.54,7-34.49,13.57-52.57,14.74-5.62.36-11.75.36-17-1.88-9.45-4-7.88-14-4.65-22,1.45-3.58-4.35-5.13-5.78-1.59-3.17,7.82-5,17.58,1.28,24.44,3.35,3.66,8.19,5.56,13,6.43,14.54,2.64,30.28-1.43,44.09-5.74C116,197.9,157,173.1,191.91,144.2c14.4-11.93,28.32-25.12,39-40.55,6-8.6,13-20.5,10.31-31.47-2.45-9.86-12.62-13.37-21.72-14-15.72-1.13-32,3.74-46.68,8.89-24.12,8.49-47.09,20.35-68.75,33.87-22.34,13.94-43.69,29.86-62.41,48.43-2.74,2.72,1.5,7,4.25,4.24Z"/><path class="cls-1" d="M230.52,215.47c29.36-12.86-5.32-51.87-17.21-64-32.45-33.22-73.87-59.71-116.48-77.84C80.11,66.48,62.42,60.19,44.22,58.4c-10-1-23.5-.78-30,8.3-6,8.44-2.06,19.73,2.26,28,7.93,15.09,20.43,27.94,32.87,39.36,20,18.41,42.56,34.26,66.07,47.9,21.65,12.57,44.58,23.54,68.65,30.66,3.71,1.09,5.29-4.7,1.59-5.79-41.17-12.17-80.12-35-113.71-61.44C57.54,134,43.63,121.55,32.11,107.2,25.52,99,16.51,87.32,17.17,76.07c.56-9.49,10.63-11.8,18.53-12,15-.4,30.23,4.26,44.21,9.28,41,14.71,79.93,38.6,112.79,67,13.88,12,27.8,25.39,37.07,41.4,5.51,9.51,10.6,22.91-2.28,28.55-3.53,1.54-.48,6.72,3,5.18Z"/><path class="cls-1" d="M147,19.77C140.54,9,128.34.11,116.33,8.38,105.56,15.79,100.08,30.11,96.12,42c-6.77,20.26-9.94,41.75-11.66,63a402.62,402.62,0,0,0,1,76.37c2.2,20,5.69,40.36,13,59.2,4.14,10.64,10.15,24.12,21.34,29,9.64,4.22,18.47-1.73,24.24-9.3,9.68-12.71,14.37-29.35,17.86-44.68,6-26.51,8-53.9,7.91-81,0-26.14-2-52.56-8.35-78-.94-3.75-6.73-2.16-5.79,1.59,5.14,20.41,7.26,41.45,7.92,62.45a421.31,421.31,0,0,1-3,67.74c-2.37,18.09-6,36.61-13.14,53.48-3.42,8-9.17,20.86-18.84,23s-16.52-9.45-20.19-16.46C100.77,233.75,97,217,94.13,200.84c-7.5-43.1-7.32-89.17,1.22-132.1,3.27-16.38,7.6-34.24,17.39-48.11,2.72-3.84,6.41-8,11.18-9.23,8-2,14.23,5.42,17.88,11.49,2,3.31,7.18.29,5.18-3Z"/><circle class="cls-1" cx="151.7" cy="38.65" r="10.95"/><circle class="cls-1" cx="30.8" cy="170.49" r="10.95"/><circle class="cls-1" cx="206.92" cy="214.27" r="10.95"/><g class="cls-2"><g class="cls-2"><path class="cls-1" d="M338.51,56.23a10.05,10.05,0,0,0-1.73-.72,16.88,16.88,0,0,0-2.36-.5,23.57,23.57,0,0,0-3.54-.23,21.06,21.06,0,0,0-8.31,1.63,17.83,17.83,0,0,0-6.63,4.86,22.41,22.41,0,0,0-4.27,7.95,36.64,36.64,0,0,0-1.49,11,33.94,33.94,0,0,0,1.49,10.54,21.69,21.69,0,0,0,4.27,7.67,17.67,17.67,0,0,0,6.68,4.72,22.37,22.37,0,0,0,8.53,1.59,27.29,27.29,0,0,0,5-.41c1.42-.27,2.65-.54,3.68-.82a21.48,21.48,0,0,0,2.54-.81,4.72,4.72,0,0,1,1.82-.41,2,2,0,0,1,1.63.63,2.6,2.6,0,0,1,.55,1.73,2.71,2.71,0,0,1-.23,1.13,3.73,3.73,0,0,1-.77,1,9.82,9.82,0,0,1-2.05,1.41,21.66,21.66,0,0,1-3.49,1.45A33.38,33.38,0,0,1,335,110.8a39,39,0,0,1-6.22.46,30.41,30.41,0,0,1-11.3-2,23.79,23.79,0,0,1-8.63-5.77,25.12,25.12,0,0,1-5.49-9.3,38.73,38.73,0,0,1-1.91-12.71,39.13,39.13,0,0,1,2.27-13.72A30.3,30.3,0,0,1,310,57.41a26.92,26.92,0,0,1,9.76-6.53,34,34,0,0,1,12.71-2.28,33.44,33.44,0,0,1,8.08.82,9.73,9.73,0,0,1,4.36,2,3.17,3.17,0,0,1,.59.82,6,6,0,0,1,.41,1.13,8.58,8.58,0,0,1,.23,1.77c0,.73,0,1.61,0,2.64v4q0,1.27-.09,3.27a2.8,2.8,0,0,1-.77,2,2.56,2.56,0,0,1-1.77.59,2.43,2.43,0,0,1-1.68-.59,3.89,3.89,0,0,1-1-2Z"/></g><path class="cls-1" d="M353.85,89.1a27.48,27.48,0,0,1,1.72-10,22.32,22.32,0,0,1,4.76-7.58,21.56,21.56,0,0,1,7.25-4.9,23.45,23.45,0,0,1,9.19-1.77q9.71,0,15.32,5.76T397.7,87.1a28.23,28.23,0,0,1-1.67,10,22.31,22.31,0,0,1-4.71,7.67,20.81,20.81,0,0,1-7.25,4.9,24.32,24.32,0,0,1-9.29,1.73q-9.7,0-15.31-5.77T353.85,89.1Zm8.35-1.22a24.5,24.5,0,0,0,1.05,7.51,15.58,15.58,0,0,0,2.91,5.44,12.15,12.15,0,0,0,4.38,3.26,13.52,13.52,0,0,0,5.42,1.08,12.35,12.35,0,0,0,9.61-4.21c2.52-2.8,3.78-7,3.78-12.72a24.57,24.57,0,0,0-1.05-7.52,15.91,15.91,0,0,0-2.87-5.43A12,12,0,0,0,381.06,72a13.39,13.39,0,0,0-5.47-1.13A12.38,12.38,0,0,0,366,75.06Q362.2,79.28,362.2,87.88Z"/><path class="cls-1" d="M412.23,72.12l-5.36-.81a3.64,3.64,0,0,1-1.95-.82,2.24,2.24,0,0,1-.5-1.55,2.38,2.38,0,0,1,.55-1.68,4.71,4.71,0,0,1,2.09-1c1-.24,2.23-.45,3.63-.64a31.1,31.1,0,0,1,4-.27c1.94,0,3.26.37,3.95,1.09s1.05,2,1.05,3.91v1.63l.18.09A14.81,14.81,0,0,1,423,68.49a17.39,17.39,0,0,1,4.17-2.41A16.44,16.44,0,0,1,433.66,65a17.78,17.78,0,0,1,8.76,2,12.66,12.66,0,0,1,5.4,5.9,17.2,17.2,0,0,1,3.64-3.91,18.52,18.52,0,0,1,4.63-2.76A16.92,16.92,0,0,1,462.9,65q7.71,0,11.89,4.27T479,82.11v22.06l4.54,1.18a3.82,3.82,0,0,1,1.95,1,2.38,2.38,0,0,1,.5,1.59,2.36,2.36,0,0,1-.77,1.86,3.15,3.15,0,0,1-2.13.68H467.17a3.14,3.14,0,0,1-2.14-.68,2.36,2.36,0,0,1-.77-1.86,2.6,2.6,0,0,1,.5-1.64,3.6,3.6,0,0,1,1.95-1l4.09-1.09V84.29q0-7-2.77-10.08a9.91,9.91,0,0,0-7.77-3.09,10.86,10.86,0,0,0-4.67,1,16.51,16.51,0,0,0-3.5,2.13,17.34,17.34,0,0,0-2.9,3.09c.06.3.15.66.27,1.09s0,.86.09,1.5.09,1.37.09,2.22v22.06l4.18,1.09a3.5,3.5,0,0,1,1.86,1,2.6,2.6,0,0,1,.5,1.64,2.4,2.4,0,0,1-.73,1.86,3.09,3.09,0,0,1-2.18.68H437.93a3.09,3.09,0,0,1-2.18-.68,2.4,2.4,0,0,1-.73-1.86,2.6,2.6,0,0,1,.5-1.64,3.5,3.5,0,0,1,1.86-1l4.18-1.09V84.29q0-7-2.77-10.08c-1.85-2.06-4.46-3.09-7.85-3.09a10.61,10.61,0,0,0-4.45.87,14.28,14.28,0,0,0-6.09,4.76v27.42l4.09,1.09a3.6,3.6,0,0,1,1.95,1,2.6,2.6,0,0,1,.5,1.64,2.36,2.36,0,0,1-.77,1.86,3.15,3.15,0,0,1-2.13.68H407.6a3.09,3.09,0,0,1-2.18-.68,2.43,2.43,0,0,1-.73-1.86,2.39,2.39,0,0,1,.46-1.55,3.83,3.83,0,0,1,2-.9l5.08-1.28Z"/><path class="cls-1" d="M497.85,72.12l-5.35-.81a3.64,3.64,0,0,1-1.95-.82,2.19,2.19,0,0,1-.5-1.55,2.42,2.42,0,0,1,.54-1.68,4.71,4.71,0,0,1,2.09-1c1-.24,2.24-.45,3.63-.64a31.25,31.25,0,0,1,4-.27c1.93,0,3.25.37,3.95,1.09s1,2,1,3.91v1.63l.18.09a14.81,14.81,0,0,1,3.18-3.54,17.47,17.47,0,0,1,4.18-2.41A16.36,16.36,0,0,1,519.28,65a17.85,17.85,0,0,1,8.77,2,12.66,12.66,0,0,1,5.4,5.9,17.38,17.38,0,0,1,3.63-3.91,18.52,18.52,0,0,1,4.63-2.76A17,17,0,0,1,548.52,65q7.72,0,11.9,4.27t4.17,12.89v22.06l4.54,1.18a3.82,3.82,0,0,1,2,1,2.69,2.69,0,0,1-.27,3.45,3.11,3.11,0,0,1-2.13.68H552.79a3.16,3.16,0,0,1-2.14-.68,2.36,2.36,0,0,1-.77-1.86,2.6,2.6,0,0,1,.5-1.64,3.64,3.64,0,0,1,2-1l4.09-1.09V84.29q0-7-2.77-10.08a9.88,9.88,0,0,0-7.76-3.09,10.87,10.87,0,0,0-4.68,1,16.18,16.18,0,0,0-3.49,2.13,17.77,17.77,0,0,0-2.91,3.09c.06.3.15.66.27,1.09s0,.86.09,1.5.09,1.37.09,2.22v22.06l4.18,1.09a3.5,3.5,0,0,1,1.86,1,2.6,2.6,0,0,1,.5,1.64,2.43,2.43,0,0,1-.72,1.86,3.13,3.13,0,0,1-2.18.68H523.55a3.11,3.11,0,0,1-2.18-.68,2.43,2.43,0,0,1-.72-1.86,2.55,2.55,0,0,1,.5-1.64,3.5,3.5,0,0,1,1.86-1l4.17-1.09V84.29q0-7-2.77-10.08t-7.85-3.09a10.61,10.61,0,0,0-4.45.87,17.44,17.44,0,0,0-3.36,2A16.78,16.78,0,0,0,506,76.75v27.42l4.08,1.09a3.6,3.6,0,0,1,1.95,1,2.55,2.55,0,0,1,.5,1.64,2.32,2.32,0,0,1-.77,1.86,3.11,3.11,0,0,1-2.13.68H493.22a3.11,3.11,0,0,1-2.18-.68,2.43,2.43,0,0,1-.72-1.86,2.39,2.39,0,0,1,.45-1.55,3.83,3.83,0,0,1,2-.9l5.08-1.28Z"/><path class="cls-1" d="M582.12,72.12l-4.82-.81a3.64,3.64,0,0,1-1.95-.82,2.24,2.24,0,0,1-.5-1.55,2.38,2.38,0,0,1,.55-1.68,4.71,4.71,0,0,1,2.09-1,33.43,33.43,0,0,1,3.63-.64,31.42,31.42,0,0,1,3.81-.27c2.06,0,3.45.38,4.18,1.14s1.09,2.13,1.09,4.13V92.73q0,6.54,2.77,9.45t7.85,2.9a12.15,12.15,0,0,0,4.72-.86,16.19,16.19,0,0,0,3.45-1.86,16.7,16.7,0,0,0,2.91-2.91V72.12l-5.45-.81a3.64,3.64,0,0,1-2-.82,2.24,2.24,0,0,1-.5-1.55,2.42,2.42,0,0,1,.54-1.68,4.77,4.77,0,0,1,2.09-1c1-.24,2.26-.45,3.68-.64a35,35,0,0,1,4.4-.27c2.06,0,3.45.38,4.18,1.14S620,68.58,620,70.58v33.69l4.72.54a4.39,4.39,0,0,1,1.95.77,1.84,1.84,0,0,1,.59,1.5,2.24,2.24,0,0,1-.59,1.68,5,5,0,0,1-2,1,21.93,21.93,0,0,1-3.27.78,23.31,23.31,0,0,1-3.81.31,4.3,4.3,0,0,1-5-4.9v-1.72l-.18-.1a14.46,14.46,0,0,1-3.18,3.55,18.38,18.38,0,0,1-4.4,2.45,17.93,17.93,0,0,1-6.67,1.09q-7.73,0-11.85-4.13t-4.13-12.22Z"/><path class="cls-1" d="M639.23,72.12l-5.36-.81a3.64,3.64,0,0,1-2-.82,2.24,2.24,0,0,1-.5-1.55,2.38,2.38,0,0,1,.55-1.68,4.66,4.66,0,0,1,2.08-1c1-.24,2.24-.45,3.64-.64a31.1,31.1,0,0,1,4-.27c1.94,0,3.25.37,4,1.09s1,2,1,3.91v1.63l.19.09a13.8,13.8,0,0,1,3.26-3.54,19.37,19.37,0,0,1,4.32-2.41A17,17,0,0,1,661,65q8,0,12.21,4.27t4.23,12.89v22.06l4.54,1.18a3.86,3.86,0,0,1,2,1,2.75,2.75,0,0,1-.23,3.45,3.09,3.09,0,0,1-2.18.68H665.29a3.11,3.11,0,0,1-2.13-.68,2.33,2.33,0,0,1-.78-1.86,2.38,2.38,0,0,1,.5-1.59,3.86,3.86,0,0,1,2-1l4.55-1.18V84.29q0-7-2.87-10.08t-8.12-3.09a11.73,11.73,0,0,0-4.72.87,16.07,16.07,0,0,0-3.45,2,15.63,15.63,0,0,0-2.82,2.81v27.42l4.54,1.18a3.57,3.57,0,0,1,1.91,1,2.55,2.55,0,0,1,.45,1.59,2.43,2.43,0,0,1-.72,1.86,3.13,3.13,0,0,1-2.18.68H634.6a3.09,3.09,0,0,1-2.18-.68,2.4,2.4,0,0,1-.73-1.86,2.33,2.33,0,0,1,.46-1.55,3.79,3.79,0,0,1,2-.9l5.09-1.28Z"/><path class="cls-1" d="M696.43,72.12l-5.35-.81a3.72,3.72,0,0,1-2-.82,2.24,2.24,0,0,1-.5-1.55,2.43,2.43,0,0,1,.55-1.68,4.71,4.71,0,0,1,2.09-1c1-.24,2.25-.45,3.67-.64a34.44,34.44,0,0,1,4.32-.27q3.18,0,4.26,1.14c.73.75,1.09,2.13,1.09,4.13v33.59l4.64,1.18a3.81,3.81,0,0,1,1.86,1,2.24,2.24,0,0,1,.5,1.5,2.47,2.47,0,0,1-.78,1.9,3.08,3.08,0,0,1-2.22.73H691.8a3.11,3.11,0,0,1-2.18-.68,2.43,2.43,0,0,1-.72-1.86,2.39,2.39,0,0,1,.45-1.55,3.83,3.83,0,0,1,2-.9l5.08-1.28Zm-1.81-19.88a5.68,5.68,0,0,1,1.63-4.13,5.61,5.61,0,0,1,9.72,4,5.7,5.7,0,0,1-1.64,4.13,5.61,5.61,0,0,1-9.71-3.95Z"/><path class="cls-1" d="M722.49,71.49h-4.36c-2,0-3-.85-3-2.55a3.05,3.05,0,0,1,.9-2.31,3.82,3.82,0,0,1,2.73-.86h3.72l1.36-6.9a9.4,9.4,0,0,1,1.46-4.09,3.1,3.1,0,0,1,2.54-1.09,2.77,2.77,0,0,1,2,.68,2.66,2.66,0,0,1,.68,2v9.45h9.35c2,0,3,.81,3,2.45a3.12,3.12,0,0,1-.91,2.4,3.78,3.78,0,0,1-2.72.87h-8.72V96.93q0,4.35,1.32,6.07a5,5,0,0,0,4.22,1.72,11.3,11.3,0,0,0,3.18-.36,7,7,0,0,1,2.09-.37,1.82,1.82,0,0,1,1.41.55,2.07,2.07,0,0,1,.49,1.45,2.62,2.62,0,0,1-.27,1.18,4.1,4.1,0,0,1-.82,1.09,12,12,0,0,1-2.67,1.59,15.15,15.15,0,0,1-6.41,1c-3.93,0-6.69-1-8.26-3s-2.36-4.82-2.36-8.4Z"/><path class="cls-1" d="M750.77,72l-2.63-.91a4.62,4.62,0,0,1-2.31-1.31,3.11,3.11,0,0,1-.59-2,1.86,1.86,0,0,1,.68-1.49,2.84,2.84,0,0,1,2-.59h14.89a2.85,2.85,0,0,1,2,.59,2,2,0,0,1,.63,1.49,2.54,2.54,0,0,1-.59,1.82,6,6,0,0,1-2.31,1.27l-3.27,1,9.08,23.25c.42,1.08.78,2.07,1.09,3s.57,1.68.82,2.4l.72,2.18h.18c.24-.72.49-1.45.73-2.18s.51-1.54.82-2.45.66-1.87,1.09-2.9l9.17-23.25-3.27-1a6.6,6.6,0,0,1-2.36-1.27,2.43,2.43,0,0,1-.64-1.82,1.89,1.89,0,0,1,.68-1.49,2.89,2.89,0,0,1,2-.59h13.43a3,3,0,0,1,2,.59,1.89,1.89,0,0,1,.68,1.49,3.17,3.17,0,0,1-.59,2,4.71,4.71,0,0,1-2.32,1.31l-2.63.91-14.44,35a80.33,80.33,0,0,1-6,12.26,40.31,40.31,0,0,1-5.9,7.62,17.11,17.11,0,0,1-5.86,3.91,16.75,16.75,0,0,1-5.86,1.09,7.85,7.85,0,0,1-4.85-1.23,4,4,0,0,1-1.59-3.4,4.23,4.23,0,0,1,.9-2.86,2.9,2.9,0,0,1,2.27-1,4.34,4.34,0,0,1,1.14.14l1.09.32a7.78,7.78,0,0,0,1.36.27,18.4,18.4,0,0,0,2,.09,9.64,9.64,0,0,0,3.45-.59,8.75,8.75,0,0,0,3-2,19.54,19.54,0,0,0,2.91-4,69.5,69.5,0,0,0,3.17-6.4Z"/><path class="cls-1" d="M855.33,56.4a9.17,9.17,0,0,0-2.18-.9c-.85-.18-1.86-.36-3-.54a29.26,29.26,0,0,0-4.32-.27q-5.53,0-8.44,2.52a7.77,7.77,0,0,0-2.91,6.1,8.19,8.19,0,0,0,2.27,6.13,19.53,19.53,0,0,0,5.68,3.77c2.27,1,4.7,2,7.31,2.91a39.69,39.69,0,0,1,7.31,3.4,17.85,17.85,0,0,1,5.63,5.31,15.29,15.29,0,0,1,2.22,8.72,17.69,17.69,0,0,1-1.41,7.08,14.86,14.86,0,0,1-4.22,5.63,20,20,0,0,1-7.08,3.68,33.62,33.62,0,0,1-9.9,1.32,40,40,0,0,1-9.76-1q-3.68-.94-4.77-2.13a5.05,5.05,0,0,1-.63-.77,3,3,0,0,1-.41-1.05,10.19,10.19,0,0,1-.18-1.63c0-.67,0-1.51,0-2.54v-4c0-.7,0-1.68.09-3a3,3,0,0,1,.73-2,2.45,2.45,0,0,1,1.73-.59c1.39,0,2.33.88,2.81,2.62l2.18,7.93a7.08,7.08,0,0,0,2.36,1,16.78,16.78,0,0,0,3.32.68,42.54,42.54,0,0,0,4.76.22c3.94,0,6.93-.93,9-2.79a9,9,0,0,0,3.09-7,9.61,9.61,0,0,0-1.27-5.13,12.22,12.22,0,0,0-3.41-3.55,22.59,22.59,0,0,0-4.9-2.54l-5.63-2.13q-2.87-1.09-5.59-2.41a20.68,20.68,0,0,1-4.85-3.22,14.54,14.54,0,0,1-3.45-4.63A15.13,15.13,0,0,1,826.09,65a15.6,15.6,0,0,1,1.36-6.54,14.41,14.41,0,0,1,4.09-5.22,19.87,19.87,0,0,1,6.81-3.49,32.74,32.74,0,0,1,9.71-1.28,35.72,35.72,0,0,1,8.81.91,11.63,11.63,0,0,1,4.63,2,3.51,3.51,0,0,1,.59.77,4.91,4.91,0,0,1,.41,1.09,8.11,8.11,0,0,1,.23,1.68c0,.67,0,1.48,0,2.45v3.68c0,.7,0,1.68-.09,3a3.28,3.28,0,0,1-.81,2,2.84,2.84,0,0,1-3.45,0,4.59,4.59,0,0,1-1.09-2Z"/><path class="cls-1" d="M901,71.58c-.3-.12-.67-.24-1.09-.37a9.26,9.26,0,0,0-1.32-.31,11.5,11.5,0,0,0-2-.14,13,13,0,0,0-10.17,4.36q-3.9,4.35-3.9,13.07,0,8.44,3.95,12.72A13.61,13.61,0,0,0,897,105.17a17.81,17.81,0,0,0,3.32-.27c.94-.18,1.74-.36,2.41-.54l1.72-.5a4.62,4.62,0,0,1,1.36-.23,2.25,2.25,0,0,1,1.64.54,2.12,2.12,0,0,1,.54,1.55,3.16,3.16,0,0,1-.91,2.18,7.47,7.47,0,0,1-1.72,1.22,14.71,14.71,0,0,1-2.68,1.09,24.17,24.17,0,0,1-3.59.82,27.31,27.31,0,0,1-4.26.32q-9.54,0-15.08-5.68t-5.54-16.2A27.49,27.49,0,0,1,876,79.39a23.46,23.46,0,0,1,4.86-7.77,21.49,21.49,0,0,1,7.4-5,24.79,24.79,0,0,1,9.49-1.77,22.42,22.42,0,0,1,5.77.63A8.3,8.3,0,0,1,906.81,67a3.85,3.85,0,0,1,.86,1.68,20.55,20.55,0,0,1,.23,3.86v2.86c0,.63,0,1.53-.09,2.67a3,3,0,0,1-.73,2,2.44,2.44,0,0,1-1.72.59,2.32,2.32,0,0,1-1.73-.64,4.5,4.5,0,0,1-1-2Z"/><path class="cls-1" d="M922.52,72.12l-5.36-.81a3.64,3.64,0,0,1-1.95-.82,2.24,2.24,0,0,1-.5-1.55,2.38,2.38,0,0,1,.55-1.68,4.66,4.66,0,0,1,2.08-1c1-.24,2.26-.45,3.68-.64a34.28,34.28,0,0,1,4.31-.27c2.12,0,3.55.38,4.27,1.14s1.09,2.13,1.09,4.13v33.59l4.63,1.18a3.72,3.72,0,0,1,1.86,1,2.19,2.19,0,0,1,.5,1.5,2.47,2.47,0,0,1-.77,1.9,3.1,3.1,0,0,1-2.22.73h-16.8a3.09,3.09,0,0,1-2.18-.68,2.4,2.4,0,0,1-.73-1.86,2.33,2.33,0,0,1,.46-1.55,3.79,3.79,0,0,1,2-.9l5.08-1.28ZM920.7,52.24a5.69,5.69,0,0,1,1.64-4.13,5.61,5.61,0,0,1,9.71,4,5.7,5.7,0,0,1-1.63,4.13,5.61,5.61,0,0,1-9.72-3.95Z"/><path class="cls-1" d="M952.39,88.65q.27,8.17,4.3,12.35t11,4.17a25.55,25.55,0,0,0,4.07-.27,22.17,22.17,0,0,0,2.81-.63l2-.64a4.62,4.62,0,0,1,1.44-.27,2.11,2.11,0,0,1,1.63.59,2.21,2.21,0,0,1,.55,1.59,2.71,2.71,0,0,1-.23,1.13,3.73,3.73,0,0,1-.77,1,13.3,13.3,0,0,1-4.77,2.4,28.54,28.54,0,0,1-9.12,1.23,24.84,24.84,0,0,1-8.86-1.5,18.09,18.09,0,0,1-6.67-4.31,19.24,19.24,0,0,1-4.22-7A27.72,27.72,0,0,1,944,89.1,29.43,29.43,0,0,1,945.67,79a22,22,0,0,1,4.5-7.58,20.18,20.18,0,0,1,15-6.54q7.72,0,12.26,4.77T982,83.29a5.61,5.61,0,0,1-1.27,4A4.9,4.9,0,0,1,977,88.65Zm21.52-5.09q-.18-6.48-3-9.64A8.86,8.86,0,0,0,964,70.76a9.76,9.76,0,0,0-7.7,3.47,16.59,16.59,0,0,0-3.65,9.33Z"/><path class="cls-1" d="M996.79,72.12l-5.36-.81a3.68,3.68,0,0,1-1.95-.82,2.24,2.24,0,0,1-.5-1.55,2.38,2.38,0,0,1,.55-1.68,4.71,4.71,0,0,1,2.09-1c1-.24,2.23-.45,3.63-.64a31.1,31.1,0,0,1,4-.27c1.94,0,3.26.37,4,1.09s1,2,1,3.91v1.63l.18.09a14,14,0,0,1,3.27-3.54,19.28,19.28,0,0,1,4.31-2.41,17,17,0,0,1,6.58-1.13q8,0,12.22,4.27T1035,82.11v22.06l4.54,1.18a3.82,3.82,0,0,1,2,1,2.75,2.75,0,0,1-.23,3.45,3.09,3.09,0,0,1-2.18.68h-16.25a3.11,3.11,0,0,1-2.13-.68,2.69,2.69,0,0,1-.27-3.45,3.82,3.82,0,0,1,1.95-1l4.54-1.18V84.29q0-7-2.86-10.08T1016,71.12a11.73,11.73,0,0,0-4.72.87,16.57,16.57,0,0,0-3.45,2,15.63,15.63,0,0,0-2.82,2.81v27.42l4.54,1.18a3.54,3.54,0,0,1,1.91,1,2.55,2.55,0,0,1,.45,1.59,2.43,2.43,0,0,1-.72,1.86,3.11,3.11,0,0,1-2.18.68h-16.8a3.11,3.11,0,0,1-2.18-.68,2.43,2.43,0,0,1-.73-1.86,2.39,2.39,0,0,1,.46-1.55,3.83,3.83,0,0,1,2-.9l5.08-1.28Z"/><g class="cls-2"><path class="cls-1" d="M1074.89,71.58c-.3-.12-.66-.24-1.09-.37a9.43,9.43,0,0,0-1.31-.31,11.66,11.66,0,0,0-2-.14,13,13,0,0,0-10.17,4.36q-3.91,4.35-3.91,13.07,0,8.44,4,12.72a13.62,13.62,0,0,0,10.49,4.26,17.78,17.78,0,0,0,3.31-.27c.94-.18,1.74-.36,2.41-.54s1.24-.35,1.72-.5a4.68,4.68,0,0,1,1.37-.23,2.23,2.23,0,0,1,1.63.54,2.12,2.12,0,0,1,.55,1.55,3.21,3.21,0,0,1-.91,2.18,7.55,7.55,0,0,1-1.73,1.22,14.42,14.42,0,0,1-2.68,1.09,24,24,0,0,1-3.58.82,27.54,27.54,0,0,1-4.27.32q-9.54,0-15.07-5.68t-5.54-16.2a27.49,27.49,0,0,1,1.77-10.08,23.3,23.3,0,0,1,4.86-7.77,21.31,21.31,0,0,1,7.4-5,24.7,24.7,0,0,1,9.48-1.77,22.37,22.37,0,0,1,5.77.63,8.35,8.35,0,0,1,3.32,1.55,3.85,3.85,0,0,1,.86,1.68,20.85,20.85,0,0,1,.22,3.86v2.86c0,.63,0,1.53-.09,2.67a3,3,0,0,1-.72,2,2.47,2.47,0,0,1-1.73.59,2.3,2.3,0,0,1-1.72-.64,4.3,4.3,0,0,1-1-2Z"/></g><g class="cls-2"><path class="cls-1" d="M1098.41,88.65q.27,8.17,4.3,12.35t11,4.17a25.55,25.55,0,0,0,4.07-.27,21.59,21.59,0,0,0,2.8-.63l2-.64a4.62,4.62,0,0,1,1.44-.27,2.11,2.11,0,0,1,1.63.59,2.26,2.26,0,0,1,.55,1.59,2.71,2.71,0,0,1-.23,1.13,3.73,3.73,0,0,1-.77,1,13.3,13.3,0,0,1-4.77,2.4,28.57,28.57,0,0,1-9.13,1.23,24.78,24.78,0,0,1-8.85-1.5,18.09,18.09,0,0,1-6.67-4.31,19.1,19.1,0,0,1-4.22-7,27.72,27.72,0,0,1-1.5-9.49A29.43,29.43,0,0,1,1091.69,79a22,22,0,0,1,4.5-7.58,20.18,20.18,0,0,1,15-6.54q7.72,0,12.26,4.77T1128,83.29a5.61,5.61,0,0,1-1.27,4,4.9,4.9,0,0,1-3.71,1.32Zm21.52-5.09q-.18-6.48-3-9.64a8.86,8.86,0,0,0-6.93-3.16,9.76,9.76,0,0,0-7.7,3.47,16.59,16.59,0,0,0-3.65,9.33Z"/></g><g class="cls-2"><path class="cls-1" d="M310.58,164.56l-4-1a4.21,4.21,0,0,1-2.32-1.23,3.12,3.12,0,0,1-.59-2,2,2,0,0,1,.64-1.5,2.88,2.88,0,0,1,2-.59h12.26a4.38,4.38,0,0,1,2.63.68,4.65,4.65,0,0,1,1.45,2.14l13.26,40.95c.42,1.33.8,2.54,1.13,3.63s.59,2,.77,2.81c.25,1,.46,1.82.64,2.55h.18c.24-.79.49-1.67.73-2.64.24-.78.5-1.72.77-2.81a34.88,34.88,0,0,1,1.14-3.63l13.25-40.86a3.93,3.93,0,0,1,4.18-2.82h12.35a2.91,2.91,0,0,1,1.95.59,1.93,1.93,0,0,1,.68,1.5,3.12,3.12,0,0,1-.59,2,4.18,4.18,0,0,1-2.31,1.23l-4,1,5.63,48.57,3.36,1.08a4.94,4.94,0,0,1,2.13,1.12,2.29,2.29,0,0,1,.5,1.56,2.4,2.4,0,0,1-.72,1.84,3.13,3.13,0,0,1-2.18.67H360.16a3.11,3.11,0,0,1-2.18-.67,2.4,2.4,0,0,1-.72-1.84,2.12,2.12,0,0,1,.59-1.52,5.85,5.85,0,0,1,2.49-1.16l3.54-1.08-3.72-35.48c-.12-1.27-.23-2.57-.32-3.91s-.16-2.51-.22-3.55c-.06-1.21-.13-2.36-.19-3.45h-.18L343.64,214.5a9.16,9.16,0,0,1-2.27,4.22,5.26,5.26,0,0,1-3.45,1,5.08,5.08,0,0,1-3.36-1,9,9,0,0,1-2.27-4.22l-15.62-47.76h-.18q0,1.63-.09,3.45c-.07,1-.14,2.2-.23,3.51s-.2,2.59-.32,3.86l-3.72,35.57,3.45,1.08a6,6,0,0,1,2.5,1.16,2.16,2.16,0,0,1,.59,1.52,2.4,2.4,0,0,1-.73,1.84,3.11,3.11,0,0,1-2.18.67H301.87a3.3,3.3,0,0,1-2.23-.67,2.33,2.33,0,0,1-.77-1.84,2.17,2.17,0,0,1,.55-1.56,5.42,5.42,0,0,1,2.18-1.12l3.36-1.08Z"/></g><path class="cls-1" d="M388.63,181.08l-4.82-.81a3.68,3.68,0,0,1-1.95-.82,2.23,2.23,0,0,1-.5-1.54,2.39,2.39,0,0,1,.55-1.69,4.71,4.71,0,0,1,2.09-1,33.43,33.43,0,0,1,3.63-.64,31.42,31.42,0,0,1,3.81-.27c2.06,0,3.45.38,4.18,1.14s1.09,2.13,1.09,4.13v22.15q0,6.54,2.77,9.45c1.84,1.94,4.46,2.9,7.85,2.9a12.15,12.15,0,0,0,4.72-.86,15.71,15.71,0,0,0,3.45-1.86,16.7,16.7,0,0,0,2.91-2.91V181.08l-5.45-.81a3.64,3.64,0,0,1-1.95-.82,2.23,2.23,0,0,1-.5-1.54,2.39,2.39,0,0,1,.55-1.69,4.66,4.66,0,0,1,2.08-1c1-.24,2.26-.45,3.68-.64a35,35,0,0,1,4.4-.27c2.06,0,3.45.38,4.18,1.14s1.09,2.13,1.09,4.13v33.69l4.72.54a4.5,4.5,0,0,1,2,.77,1.88,1.88,0,0,1,.58,1.5,2.27,2.27,0,0,1-.58,1.68,5,5,0,0,1-2.05,1,20.76,20.76,0,0,1-3.27.78,23.31,23.31,0,0,1-3.81.31,4.3,4.3,0,0,1-5-4.9v-1.72l-.19-.1a14.42,14.42,0,0,1-3.17,3.55,18.46,18.46,0,0,1-4.41,2.45,17.9,17.9,0,0,1-6.67,1.09q-7.73,0-11.85-4.13t-4.13-12.22Z"/><path class="cls-1" d="M447.92,213.13a7.28,7.28,0,0,0,2,.73,11.13,11.13,0,0,0,2.45.59,25.47,25.47,0,0,0,3.63.23q4.9,0,7-1.82a6.06,6.06,0,0,0,2.09-4.81,5.09,5.09,0,0,0-1.82-4.09,17.61,17.61,0,0,0-4.44-2.67q-2.64-1.14-5.77-2.14a30.42,30.42,0,0,1-5.77-2.49,14.51,14.51,0,0,1-4.45-3.91,10,10,0,0,1-1.81-6.22,11.27,11.27,0,0,1,1.09-4.86,10.8,10.8,0,0,1,3.36-4,18.16,18.16,0,0,1,5.63-2.77,26.92,26.92,0,0,1,7.9-1,29,29,0,0,1,7.12.72,8.63,8.63,0,0,1,3.68,1.64,2.68,2.68,0,0,1,.91,1.54,18.2,18.2,0,0,1,.18,3.09v2.45c0,.49,0,1.21-.09,2.18a2.79,2.79,0,0,1-.73,1.95,2.25,2.25,0,0,1-1.63.59,2.11,2.11,0,0,1-1.59-.59,5,5,0,0,1-1-1.95l-1.27-4.81a17.54,17.54,0,0,1-1.92-.55c-.61-.12-1.36-.25-2.24-.4a18.36,18.36,0,0,0-3.06-.23c-3.1,0-5.3.53-6.57,1.59a5.1,5.1,0,0,0-1.92,4.13,4.87,4.87,0,0,0,1.77,4,16.32,16.32,0,0,0,4.47,2.5q2.69,1.05,5.79,2a29.1,29.1,0,0,1,5.79,2.59,14.66,14.66,0,0,1,4.46,4,10.57,10.57,0,0,1,1.78,6.36,12.6,12.6,0,0,1-1.14,5.31,11.31,11.31,0,0,1-3.45,4.31,18.1,18.1,0,0,1-5.76,2.91,27.17,27.17,0,0,1-8.17,1.09,29.6,29.6,0,0,1-7.9-.86,8.93,8.93,0,0,1-3.91-1.87,3,3,0,0,1-.95-1.49,14.45,14.45,0,0,1-.23-3.14v-2.67c0-.52,0-1.23.09-2.14a3.11,3.11,0,0,1,.82-2,2.43,2.43,0,0,1,1.63-.54,2.25,2.25,0,0,1,1.59.54,4.69,4.69,0,0,1,1.05,2Z"/><path class="cls-1" d="M490.41,197.61q.27,8.17,4.3,12.35t11,4.17a25.55,25.55,0,0,0,4.07-.27,22.17,22.17,0,0,0,2.81-.63l2-.64a4.63,4.63,0,0,1,1.45-.27,2.14,2.14,0,0,1,1.63.59,2.25,2.25,0,0,1,.54,1.59,2.71,2.71,0,0,1-.23,1.13,3.73,3.73,0,0,1-.77,1.05,13.3,13.3,0,0,1-4.77,2.4,28.54,28.54,0,0,1-9.12,1.23,24.84,24.84,0,0,1-8.86-1.5,18.17,18.17,0,0,1-6.67-4.31,19.24,19.24,0,0,1-4.22-6.95,27.72,27.72,0,0,1-1.5-9.49,29.43,29.43,0,0,1,1.63-10.12,22.06,22.06,0,0,1,4.5-7.58,20.39,20.39,0,0,1,6.72-4.82,20.11,20.11,0,0,1,8.31-1.72q7.71,0,12.25,4.77T520,192.25a5.64,5.64,0,0,1-1.26,4,4.91,4.91,0,0,1-3.71,1.32Zm21.52-5.09q-.18-6.48-3-9.64a8.86,8.86,0,0,0-6.93-3.16,9.76,9.76,0,0,0-7.7,3.47,16.58,16.58,0,0,0-3.64,9.33Z"/><path class="cls-1" d="M533.45,181.08l-4.81-.81a3.64,3.64,0,0,1-1.95-.82,2.18,2.18,0,0,1-.5-1.54,2.43,2.43,0,0,1,.54-1.69,4.77,4.77,0,0,1,2.09-1,33.88,33.88,0,0,1,3.63-.64,31.7,31.7,0,0,1,3.82-.27c2.05,0,3.45.38,4.17,1.14s1.09,2.13,1.09,4.13v22.15q0,6.54,2.77,9.45c1.85,1.94,4.47,2.9,7.86,2.9a12.18,12.18,0,0,0,4.72-.86,13.76,13.76,0,0,0,6.35-4.77V181.08l-5.44-.81a3.72,3.72,0,0,1-2-.82,2.23,2.23,0,0,1-.5-1.54,2.44,2.44,0,0,1,.55-1.69,4.71,4.71,0,0,1,2.09-1c1-.24,2.25-.45,3.68-.64a35,35,0,0,1,4.4-.27c2.06,0,3.45.38,4.18,1.14s1.09,2.13,1.09,4.13v33.69l4.72.54a4.39,4.39,0,0,1,2,.77,1.89,1.89,0,0,1,.59,1.5,2.28,2.28,0,0,1-.59,1.68,5,5,0,0,1-2,1,20.76,20.76,0,0,1-3.27.78,23.34,23.34,0,0,1-3.82.31,4.3,4.3,0,0,1-5-4.9v-1.72l-.18-.1a14.67,14.67,0,0,1-3.18,3.55,18.58,18.58,0,0,1-4.4,2.45,18,18,0,0,1-6.68,1.09q-7.71,0-11.85-4.13t-4.13-12.22Z"/><path class="cls-1" d="M590.57,181.08l-5.36-.81a3.64,3.64,0,0,1-2-.82,2.18,2.18,0,0,1-.5-1.54,2.43,2.43,0,0,1,.54-1.69,4.77,4.77,0,0,1,2.09-1c1-.24,2.24-.45,3.63-.64a31.25,31.25,0,0,1,4-.27c1.93,0,3.25.37,4,1.09s1,2,1,3.91v1.63l.18.09a14.81,14.81,0,0,1,3.18-3.54,17.47,17.47,0,0,1,4.18-2.41,16.36,16.36,0,0,1,6.44-1.13,17.85,17.85,0,0,1,8.77,2,12.66,12.66,0,0,1,5.4,5.9,17.13,17.13,0,0,1,3.63-3.9,18.24,18.24,0,0,1,4.63-2.77,17,17,0,0,1,6.81-1.23q7.72,0,11.9,4.27t4.17,12.89v22.06l4.54,1.19a3.83,3.83,0,0,1,2,1,2.38,2.38,0,0,1,.49,1.59,2.32,2.32,0,0,1-.77,1.86,3.11,3.11,0,0,1-2.13.68H645.5a3.11,3.11,0,0,1-2.13-.68,2.33,2.33,0,0,1-.78-1.86,2.6,2.6,0,0,1,.5-1.64,3.64,3.64,0,0,1,1.95-1l4.09-1.09V193.25q0-7-2.77-10.08a9.88,9.88,0,0,0-7.76-3.09,10.87,10.87,0,0,0-4.68,1,16.18,16.18,0,0,0-3.49,2.13,17.77,17.77,0,0,0-2.91,3.09c.06.3.15.66.27,1.09s0,.86.09,1.5.09,1.37.09,2.22v22.06l4.18,1.09a3.5,3.5,0,0,1,1.86,1,2.6,2.6,0,0,1,.5,1.64,2.43,2.43,0,0,1-.72,1.86,3.13,3.13,0,0,1-2.18.68H616.26a3.11,3.11,0,0,1-2.18-.68,2.43,2.43,0,0,1-.72-1.86,2.55,2.55,0,0,1,.5-1.64,3.5,3.5,0,0,1,1.86-1l4.17-1.09V193.25q0-7-2.77-10.08t-7.85-3.09a10.64,10.64,0,0,0-4.45.87,17.44,17.44,0,0,0-3.36,2,16.78,16.78,0,0,0-2.72,2.81v27.42l4.08,1.09a3.67,3.67,0,0,1,2,1,2.6,2.6,0,0,1,.5,1.64,2.33,2.33,0,0,1-.78,1.86,3.11,3.11,0,0,1-2.13.68H585.93a3.13,3.13,0,0,1-2.18-.68,2.43,2.43,0,0,1-.72-1.86,2.39,2.39,0,0,1,.45-1.55,3.87,3.87,0,0,1,2-.9l5.09-1.28Z"/></g></svg>